<svg width="51" height="51" viewBox="0 0 51 51" fill="none" xmlns="http://www.w3.org/2000/svg">
<path d="M14.1009 12.2888L14.7256 16.0351C15.1281 18.4513 16.2756 20.6813 18.0078 22.4134L21.2194 25.625L20.4616 27.1427C20.0366 27.9907 20.2031 29.0149 20.8728 29.6846L23.5126 32.3245C23.9239 32.7357 24.1569 33.2978 24.1569 33.8814V36.014C24.1569 36.8482 24.6269 37.61 25.375 37.9841L25.6746 38.1329C26.5226 38.5579 27.5468 38.3914 28.2166 37.7216L29.6324 36.3058C31.8157 34.122 33.3645 31.386 34.1131 28.3902C34.2105 28.0018 34.1963 27.5939 34.0723 27.2132C33.9483 26.8325 33.7195 26.4945 33.412 26.238L30.8074 24.0681C30.3159 23.6569 29.6677 23.4826 29.0352 23.5884L26.7439 23.9702C26.3982 24.0278 26.0437 24.002 25.7099 23.8951C25.3761 23.7881 25.0726 23.6031 24.8247 23.3553L24.247 22.7776C24.0424 22.573 23.8802 22.3302 23.7694 22.0629C23.6587 21.7956 23.6017 21.5091 23.6017 21.2197C23.6017 20.9304 23.6587 20.6439 23.7694 20.3766C23.8802 20.1093 24.0424 19.8665 24.247 19.6619L24.5016 19.4034C24.8289 19.0761 25.2511 18.8602 25.7081 18.7864C26.1651 18.7125 26.6337 18.7845 27.0474 18.9921L28.2283 19.5836C28.5259 19.733 28.863 19.7848 29.1917 19.7318C29.5204 19.6787 29.8241 19.5234 30.0595 19.288C30.295 19.0525 30.4502 18.7489 30.5033 18.4202C30.5563 18.0915 30.5045 17.7544 30.3551 17.4568L30.0319 16.8125L32.4916 15.1734C33.7672 14.3224 34.7986 13.1533 35.4839 11.7816L35.7699 11.2097M14.1009 12.2888C11.3242 14.6883 9.36578 17.8947 8.49885 21.4607C7.63192 25.0267 7.89973 28.7743 9.26491 32.1808C10.6301 35.5873 13.0246 38.4826 16.1142 40.4629C19.2039 42.4432 22.8347 43.4097 26.5 43.2275C30.1653 43.0454 33.6823 41.7236 36.5604 39.4466C39.4385 37.1697 41.534 34.0511 42.5547 30.5261C43.5753 27.001 43.4701 23.2453 42.2539 19.7829C41.0376 16.3204 38.7708 13.3221 35.7699 11.2097M14.1009 12.2888C17.2999 9.51657 21.3927 7.9935 25.6257 8.00002C29.4033 8.00002 32.9029 9.18677 35.7699 11.2097" stroke="black" stroke-width="1.5" stroke-linecap="round" stroke-linejoin="round"/>
</svg>
