<svg width="45" height="45" viewBox="0 0 45 45" fill="none" xmlns="http://www.w3.org/2000/svg">
<g clip-path="url(#clip0_390_95)">
<path d="M7.98758 19.0256C7.47185 22.9736 7.16455 26.946 7.06695 30.9262C12.4647 33.181 17.6329 35.95 22.5001 39.195C27.3679 35.9499 32.5367 33.1809 37.9351 30.9262C37.8374 26.946 37.5301 22.9736 37.0145 19.0256M37.0145 19.0256C38.6551 18.4744 40.3182 17.9644 41.9982 17.4994C35.8793 13.2098 29.3475 9.54166 22.5001 6.54938C15.6526 9.54229 9.12082 13.2111 3.00195 17.5013C4.67686 17.9636 6.33873 18.4719 7.9857 19.0256C12.9894 20.7077 17.8443 22.8037 22.5001 25.2919C27.1552 22.8039 32.0114 20.7079 37.0145 19.0256ZM12.6563 28.125C13.0293 28.125 13.387 27.9768 13.6507 27.7131C13.9144 27.4494 14.0626 27.0917 14.0626 26.7188C14.0626 26.3458 13.9144 25.9881 13.6507 25.7244C13.387 25.4607 13.0293 25.3125 12.6563 25.3125C12.2834 25.3125 11.9257 25.4607 11.662 25.7244C11.3982 25.9881 11.2501 26.3458 11.2501 26.7188C11.2501 27.0917 11.3982 27.4494 11.662 27.7131C11.9257 27.9768 12.2834 28.125 12.6563 28.125ZM12.6563 28.125V21.2344C15.8377 19.2569 19.1238 17.453 22.5001 15.8306M9.36195 37.4869C10.4082 36.4433 11.2378 35.2032 11.8031 33.8379C12.3685 32.4726 12.6585 31.009 12.6563 29.5313V26.7188" stroke="black" stroke-width="1.5" stroke-linecap="round" stroke-linejoin="round"/>
</g>
<defs>
<clipPath id="clip0_390_95">
<rect width="45" height="45" fill="white"/>
</clipPath>
</defs>
</svg>
