<svg width="46" height="46" viewBox="0 0 46 46" fill="none" xmlns="http://www.w3.org/2000/svg">
<path d="M23.0009 34.4274V24.4267M23.0009 24.4267C23.9454 24.4275 24.8862 24.3065 25.8009 24.0667M23.0009 24.4267C22.0565 24.4275 21.1157 24.3065 20.2009 24.0667M27.2009 38.3115C24.4257 38.8493 21.5761 38.8493 18.8009 38.3115M25.8009 42.8508C23.9394 43.0497 22.0625 43.0497 20.2009 42.8508M27.2009 34.4274V34.0617C27.2009 32.1892 28.4292 30.5891 30.0159 29.6499C32.6815 28.0747 34.7636 25.6463 35.9396 22.741C37.1156 19.8357 37.3198 16.6157 36.5206 13.58C35.7214 10.5442 33.9634 7.8622 31.519 5.94945C29.0746 4.03669 26.0803 3 23 3C19.9197 3 16.9254 4.03669 14.481 5.94945C12.0366 7.8622 10.2786 10.5442 9.47942 13.58C8.68023 16.6157 8.88445 19.8357 10.0604 22.741C11.2364 25.6463 13.3185 28.0747 15.9841 29.6499C17.5708 30.5891 18.8009 32.1892 18.8009 34.0617V34.4274" stroke="black" stroke-width="1.5" stroke-linecap="round" stroke-linejoin="round"/>
</svg>
