<svg width="46" height="46" viewBox="0 0 46 46" fill="none" xmlns="http://www.w3.org/2000/svg">
<g clip-path="url(#clip0_390_108)">
<path d="M0.96875 30.125C0.96875 32.7606 2.01573 35.2882 3.87938 37.1519C5.74302 39.0155 8.27066 40.0625 10.9062 40.0625H35.75C37.6885 40.0646 39.5664 39.3866 41.0564 38.1465C42.5464 36.9064 43.5542 35.183 43.9041 33.2763C44.2541 31.3696 43.9241 29.4006 42.9716 27.7122C42.0191 26.0238 40.5044 24.7231 38.6915 24.0366C39.1013 22.8711 39.177 21.6143 38.9101 20.408C38.6433 19.2018 38.0444 18.0942 37.1812 17.2103C36.3181 16.3265 35.2249 15.7016 34.0253 15.4062C32.8257 15.1109 31.5674 15.1569 30.3926 15.539C29.6327 12.624 27.7681 10.1193 25.1936 8.55513C22.6192 6.99101 19.537 6.49032 16.5998 7.15911C13.6626 7.82789 11.101 9.61362 9.45755 12.1382C7.81405 14.6627 7.21767 17.7278 7.79471 20.6844C5.80849 21.3399 4.07962 22.6052 2.85409 24.3001C1.62857 25.9951 0.968829 28.0334 0.96875 30.125Z" stroke="black" stroke-width="1.5" stroke-linecap="round" stroke-linejoin="round"/>
</g>
<defs>
<clipPath id="clip0_390_108">
<rect width="46" height="46" fill="white"/>
</clipPath>
</defs>
</svg>
