<svg width="39" height="39" viewBox="0 0 39 39" fill="none" xmlns="http://www.w3.org/2000/svg">
<path d="M19.5 4.875V32.9062M19.5 32.9062C17.108 32.9062 14.8168 33.3369 12.6994 34.125M19.5 32.9062C21.892 32.9062 24.1832 33.3369 26.3006 34.125M30.4688 8.07625C26.8348 7.56618 23.1696 7.31097 19.5 7.3125C15.7771 7.3125 12.1144 7.5725 8.53125 8.07625M30.4688 8.07625C32.11 8.30862 33.735 8.59137 35.3438 8.92125M30.4688 8.07625L34.7263 25.506C34.9245 26.3169 34.554 27.1765 33.7691 27.4593C32.7103 27.8393 31.5937 28.0328 30.4688 28.0312C29.3438 28.0328 28.2272 27.8393 27.1684 27.4593C26.3835 27.1765 26.013 26.3169 26.2096 25.506L30.4688 8.07788V8.07625ZM8.53125 8.07625C6.89 8.30862 5.265 8.59137 3.65625 8.92125M8.53125 8.07625L12.7887 25.506C12.987 26.3169 12.6165 27.1765 11.8316 27.4593C10.7728 27.8392 9.65617 28.0328 8.53125 28.0312C7.40633 28.0328 6.28967 27.8392 5.23088 27.4593C4.446 27.1765 4.0755 26.3169 4.27212 25.506L8.53125 8.07788V8.07625Z" stroke="black" stroke-width="1.5" stroke-linecap="round" stroke-linejoin="round"/>
</svg>
