<svg width="44" height="44" viewBox="0 0 44 44" fill="none" xmlns="http://www.w3.org/2000/svg">
<path d="M28.5817 26.345C28.9634 27.9603 28.9747 29.6411 28.6146 31.2613C28.2545 32.8816 27.5325 34.3994 26.5025 35.7009C25.4725 37.0025 24.1614 38.0541 22.6672 38.777C21.1731 39.4999 19.5348 39.8752 17.875 39.875V31.075M28.5817 26.345C32.0831 23.7944 34.9316 20.4517 36.8943 16.59C38.857 12.7282 39.8784 8.45693 39.875 4.12501C35.5434 4.12188 31.2725 5.1434 27.411 7.10613C23.5496 9.06886 20.2072 11.9171 17.6568 15.4183M28.5817 26.345C25.3952 28.6757 21.7439 30.2893 17.875 31.075M17.875 31.075C17.6862 31.1135 17.4955 31.1502 17.3048 31.185C15.6416 29.8661 14.1357 28.3602 12.8168 26.697C12.8515 26.506 12.8863 26.3153 12.925 26.125M17.6568 15.4183C16.0414 15.0363 14.3605 15.0248 12.74 15.3847C11.1195 15.7446 9.60143 16.4666 8.29963 17.4966C6.99784 18.5266 5.94605 19.8379 5.22307 21.3322C4.5001 22.8265 4.1247 24.465 4.125 26.125H12.925M17.6568 15.4183C15.3265 18.6043 13.711 22.2568 12.925 26.125M8.82017 30.5067C7.61416 31.4035 6.6765 32.6131 6.10871 34.0046C5.54093 35.3962 5.36466 36.9165 5.599 38.401C7.08368 38.6351 8.60413 38.4586 9.99566 37.8905C11.3872 37.3224 12.5968 36.3843 13.4933 35.178M30.25 16.5C30.25 17.2294 29.9603 17.9288 29.4445 18.4446C28.9288 18.9603 28.2293 19.25 27.5 19.25C26.7707 19.25 26.0712 18.9603 25.5555 18.4446C25.0397 17.9288 24.75 17.2294 24.75 16.5C24.75 15.7707 25.0397 15.0712 25.5555 14.5555C26.0712 14.0397 26.7707 13.75 27.5 13.75C28.2293 13.75 28.9288 14.0397 29.4445 14.5555C29.9603 15.0712 30.25 15.7707 30.25 16.5Z" stroke="black" stroke-width="1.5" stroke-linecap="round" stroke-linejoin="round"/>
</svg>
