<svg width="46" height="46" viewBox="0 0 46 46" fill="none" xmlns="http://www.w3.org/2000/svg">
<path d="M15.7812 36.5938C15.7812 37.3065 15.4981 37.9901 14.9941 38.4941C14.4901 38.9981 13.8065 39.2813 13.0937 39.2813C12.381 39.2813 11.6974 38.9981 11.1934 38.4941C10.6894 37.9901 10.4062 37.3065 10.4062 36.5938M15.7812 36.5938C15.7812 35.881 15.4981 35.1974 14.9941 34.6934C14.4901 34.1894 13.8065 33.9063 13.0937 33.9063C12.381 33.9063 11.6974 34.1894 11.1934 34.6934C10.6894 35.1974 10.4062 35.881 10.4062 36.5938M15.7812 36.5938H26.5312M10.4062 36.5938H7.04685C6.51227 36.5938 5.99959 36.3814 5.62159 36.0034C5.24358 35.6254 5.03122 35.1127 5.03122 34.5781V28.5313M26.5312 36.5938H30.5625M26.5312 36.5938V28.5313M5.03122 28.5313V14.8519C5.02838 14.3613 5.20763 13.887 5.5343 13.521C5.86097 13.1549 6.31182 12.9231 6.7996 12.8703C12.7713 12.2504 18.7911 12.2504 24.7628 12.8703C25.7751 12.9742 26.5312 13.8342 26.5312 14.8519V16.5683M5.03122 28.5313H26.5312M35.9375 36.5938C35.9375 37.3065 35.6543 37.9901 35.1503 38.4941C34.6463 38.9981 33.9627 39.2813 33.25 39.2813C32.5372 39.2813 31.8536 38.9981 31.3496 38.4941C30.8456 37.9901 30.5625 37.3065 30.5625 36.5938M35.9375 36.5938C35.9375 35.881 35.6543 35.1974 35.1503 34.6934C34.6463 34.1894 33.9627 33.9063 33.25 33.9063C32.5372 33.9063 31.8536 34.1894 31.3496 34.6934C30.8456 35.1974 30.5625 35.881 30.5625 36.5938M35.9375 36.5938H37.9531C39.0657 36.5938 39.9759 35.6908 39.906 34.5799C39.546 28.6632 37.5534 22.962 34.1494 18.1091C33.8252 17.6545 33.4018 17.2796 32.9114 17.0127C32.421 16.7457 31.8763 16.5938 31.3186 16.5683H26.5312M26.5312 16.5683V28.5313" stroke="black" stroke-width="1.5" stroke-linecap="round" stroke-linejoin="round"/>
</svg>
