<?xml version="1.0" encoding="UTF-8"?>
<svg version="1.1" xmlns="http://www.w3.org/2000/svg" width="1298" height="1254">
<path d="M0 0 C1.03016928 -0.00066278 1.03016928 -0.00066278 2.08115005 -0.00133896 C24.95801701 -0.00904243 47.63782045 0.5435346 70.375 3.25 C71.0963916 3.33485657 71.8177832 3.41971313 72.56103516 3.50714111 C157.41491636 13.58950887 239.5112477 41.28300931 369.375 123.25 C370.01711426 123.74048828 370.65922852 124.23097656 371.32080078 124.73632812 C379.30869987 130.8664308 387.05689658 137.25744442 394.69677734 143.81445312 C396.46464519 145.32668224 398.24135317 146.82803722 400.01953125 148.328125 C405.76768619 153.19218292 411.36674797 158.07285639 416.61328125 163.484375 C418.32128737 165.19616828 420.09049613 166.75298288 421.9375 168.3125 C430.72341334 175.8781476 439.10501167 184.31484031 446.58203125 193.17578125 C448.5572271 195.46081174 450.60680094 197.66348371 452.66894531 199.86987305 C458.51369464 206.12707612 464.01599499 212.56875683 469.375 219.25 C470.3577665 220.44273342 471.34224931 221.63405401 472.328125 222.82421875 C531.29018957 294.20125456 571.72447538 379.46862141 606.578125 583.578125 C606.58514675 585.00857575 606.59223358 586.43902619 606.59938049 587.86947632 C606.61877261 592.41298883 606.62381423 596.95645028 606.625 601.5 C606.62544186 602.2738781 606.62588371 603.0477562 606.62633896 603.84508514 C606.63321067 626.78849852 606.35156625 649.46257035 603.375 672.25 C603.20061216 673.66377086 603.02730721 675.07767564 602.85498047 676.49169922 C593.62812694 751.5047184 570.56439714 825.18521039 504.375 939.25 C503.68591553 940.24555908 503.68591553 940.24555908 502.98291016 941.26123047 C492.98945827 955.66954065 482.65786094 969.81894427 471.375 983.25 C470.9433252 983.7665918 470.51165039 984.28318359 470.06689453 984.81542969 C464.70563993 991.22914215 459.27459685 997.56087511 453.640625 1003.73828125 C452.37776471 1005.1383143 451.12127087 1006.5444252 449.89042664 1007.97268677 C445.69139919 1012.84369127 441.30728661 1017.46447831 436.75390625 1022.00390625 C436.05031479 1022.70845444 435.34672333 1023.41300262 434.62181091 1024.13890076 C433.14485352 1025.61653367 431.66665258 1027.09292457 430.18725586 1028.56811523 C427.94334915 1030.80666481 425.70483296 1033.05050473 423.46679688 1035.29492188 C422.02115382 1036.73990404 420.57520055 1038.18457592 419.12890625 1039.62890625 C418.14102867 1040.61982018 418.14102867 1040.61982018 417.13319397 1041.63075256 C412.70753475 1046.03452837 408.1135655 1050.18628685 403.375 1054.25 C402.28081479 1055.20001981 401.18698785 1056.15045266 400.09375 1057.1015625 C363.36066623 1088.82636109 323.35132854 1115.68513666 280.375 1138.25 C279.46556641 1138.73001465 278.55613281 1139.2100293 277.61914062 1139.70458984 C209.36780417 1175.48997391 133.0119297 1196.48924582 56.375 1203.25 C55.25254883 1203.35296387 54.13009766 1203.45592773 52.97363281 1203.56201172 C17.67700199 1206.68163854 -18.34720444 1206.52631034 -53.625 1203.25 C-54.28169678 1203.1891925 -54.93839355 1203.12838501 -55.61499023 1203.06573486 C-131.92298482 1195.90583062 -206.33370058 1174.46742135 -274.48535156 1139.34863281 C-276.95059188 1138.08282023 -279.42490768 1136.83547072 -281.8984375 1135.5859375 C-313.28703983 1119.60433262 -342.96308038 1100.04536486 -370.625 1078.25 C-371.47191406 1077.58613281 -372.31882812 1076.92226562 -373.19140625 1076.23828125 C-382.91296519 1068.54529801 -392.35896494 1060.48439148 -401.625 1052.25 C-402.34429687 1051.61191406 -403.06359375 1050.97382812 -403.8046875 1050.31640625 C-431.5339628 1025.5418898 -431.5339628 1025.5418898 -442.625 1012.53125 C-444.79391835 1010.05732751 -447.03327129 1007.66116879 -449.28564453 1005.26342773 C-455.35415263 998.79997401 -461.08459741 992.17550324 -466.625 985.25 C-467.61794221 984.04664861 -468.61286509 982.84492985 -469.609375 981.64453125 C-477.73550571 971.8234021 -485.31061895 961.68784314 -492.625 951.25 C-493.43735107 950.09129395 -493.43735107 950.09129395 -494.26611328 948.90917969 C-512.03325868 923.46422123 -527.63999284 896.95142206 -541.625 869.25 C-542.12 868.2707959 -542.615 867.2915918 -543.125 866.28271484 C-551.63610994 849.31867638 -558.82516582 831.94919829 -565.625 814.25 C-566.18912598 812.80343018 -566.18912598 812.80343018 -566.76464844 811.32763672 C-587.64187466 757.6251379 -598.79439917 699.61507394 -602.625 642.25 C-602.71177002 641.03763672 -602.71177002 641.03763672 -602.80029297 639.80078125 C-608.23566512 561.73786968 -596.9542514 482.11116018 -552.625 359.25 C-552.35903015 358.65596375 -552.0930603 358.06192749 -551.81903076 357.44989014 C-543.83011657 339.64362755 -535.29016454 322.21876097 -525.625 305.25 C-525.15980957 304.43015625 -524.69461914 303.6103125 -524.21533203 302.765625 C-507.57376685 273.67704838 -488.06774358 245.97579239 -466.625 220.25 C-466.14434082 219.67024414 -465.66368164 219.09048828 -465.16845703 218.49316406 C-459.04173033 211.11233003 -452.70440869 203.96935003 -446.17456055 196.94311523 C-445.00848641 195.66901344 -443.85594964 194.38250178 -442.71020508 193.09008789 C-437.05500538 186.71883046 -431.16521255 180.63531837 -425.1315918 174.6262207 C-423.55725845 173.0572764 -421.98838411 171.48301442 -420.41992188 169.90820312 C-414.9931211 164.4778251 -409.46985425 159.23225927 -403.625 154.25 C-402.01731627 152.79554483 -400.41260285 151.33779105 -398.8125 149.875 C-393.56324117 145.14428498 -388.12941004 140.67916306 -382.625 136.25 C-381.50364698 135.33625558 -380.38256489 134.42217861 -379.26171875 133.5078125 C-325.5117438 89.84835068 -263.94172465 56.0658646 -198.625 33.25 C-197.47354492 32.84571777 -196.32208984 32.44143555 -195.13574219 32.02490234 C-146.78911387 15.24656077 -96.55314345 5.58700036 -45.625 1.25 C-44.44776367 1.146875 -43.27052734 1.04375 -42.05761719 0.9375 C-28.06578302 -0.1136708 -14.02327746 0.00413599 0 0 Z " fill="#4BAFB2" transform="translate(650.625,22.75)"/>
<path d="M0 0 C1.11352341 -0.0099852 1.11352341 -0.0099852 2.24954224 -0.02017212 C3.82144694 -0.03030412 5.39339471 -0.03498897 6.96533203 -0.03466797 C9.36693611 -0.03903364 11.76669101 -0.07532223 14.16796875 -0.11328125 C15.69530622 -0.11915092 17.22265241 -0.12311931 18.75 -0.125 C19.82518387 -0.14655655 19.82518387 -0.14655655 20.92208862 -0.16854858 C24.20040358 -0.13861702 26.14529147 0.0722338 28.82666016 2.02270508 C30.65804425 4.54265342 31.92515851 6.94952897 33.1640625 9.80859375 C33.62941406 10.87400391 34.09476563 11.93941406 34.57421875 13.03710938 C35.04730469 14.14634766 35.52039063 15.25558594 36.0078125 16.3984375 C36.48089844 17.48060547 36.95398438 18.56277344 37.44140625 19.67773438 C40.04903739 25.69840073 42.45623324 31.7459155 44.60644531 37.94506836 C45.51004824 40.34186777 46.57351334 42.56640604 47.7578125 44.8359375 C53.26019792 55.48296812 57.69528437 66.77717813 61.65234375 78.078125 C62.45695133 80.20170118 63.38405356 82.1433712 64.4453125 84.1484375 C66.90619083 88.83948682 68.48484599 93.82212446 70.21875 98.81640625 C71.3684431 101.95541681 72.64500913 104.93981901 74.0703125 107.9609375 C76.27775213 112.65088711 77.88928303 117.39956156 79.46484375 122.33203125 C80.86722336 126.37109462 82.6261367 130.1984105 84.45703125 134.05859375 C85.5078125 136.3359375 85.5078125 136.3359375 86.5078125 139.3359375 C88.94697005 134.80607349 90.87870457 130.42787946 92.4453125 125.5234375 C94.05535935 120.49756575 96.04694467 115.81821111 98.2890625 111.046875 C99.89229313 107.48071457 101.17741843 103.8325637 102.48046875 100.1484375 C103.93264689 96.17289279 105.57070638 92.28439247 107.21875 88.38671875 C108.08934179 86.32631817 108.94845557 84.26103546 109.796875 82.19140625 C113.33948076 73.55222963 113.33948076 73.55222963 115.5078125 69.3984375 C117.78618256 64.97894859 119.46627867 60.3531065 121.22265625 55.70703125 C123.85753197 48.79548796 126.61359654 41.97473091 130.0078125 35.3984375 C133.52486336 28.52919754 136.07419194 21.25419304 138.72265625 14.015625 C139.32787109 12.44167969 139.32787109 12.44167969 139.9453125 10.8359375 C140.29464844 9.8975 140.64398437 8.9590625 141.00390625 7.9921875 C142.90580505 4.63298963 145.23619332 2.33297583 148.5078125 0.3359375 C151.98706055 -0.26342773 151.98706055 -0.26342773 155.76953125 -0.22265625 C156.77824028 -0.21915916 156.77824028 -0.21915916 157.80732727 -0.21559143 C159.21844298 -0.20590611 160.6295229 -0.18423949 162.0402832 -0.15112305 C164.19996609 -0.10145548 166.35737394 -0.08962331 168.51757812 -0.08398438 C179.03944845 0.0236948 179.03944845 0.0236948 182.5078125 2.3359375 C182.80854694 5.31203339 182.91184686 8.0809842 182.88876343 11.06016541 C182.8934434 11.97447329 182.89812337 12.88878117 182.90294516 13.83079535 C182.91496974 16.91330209 182.90540884 19.99537034 182.89599609 23.07788086 C182.90005851 25.28017945 182.90539852 27.48247601 182.91192627 29.68476868 C182.92564573 35.68057871 182.92028193 41.67623452 182.91078901 47.67204738 C182.90321539 53.93538641 182.9102317 60.19871187 182.91494751 66.46205139 C182.92076264 77.65783641 182.91141453 88.85355761 182.8961695 100.04932762 C182.88276886 110.20503913 182.8850907 120.36064777 182.89892578 130.51635742 C182.914973 142.30146149 182.92096004 154.08651542 182.91208899 165.87163073 C182.90740356 172.11310934 182.90681138 178.35451704 182.91669846 184.59599113 C182.92534358 190.46382538 182.91939113 196.33146476 182.90201569 202.19927788 C182.89803752 204.35723039 182.89920747 206.5151992 182.90580368 208.67314529 C182.91395687 211.61056277 182.90377306 214.54734909 182.88876343 217.48472595 C182.89545559 218.34619561 182.90214776 219.20766526 182.90904272 220.09524006 C182.85133667 225.88573189 182.85133667 225.88573189 181.19759619 228.05304152 C178.41556529 230.16517947 175.23696766 229.76271163 171.8828125 229.734375 C170.767854 229.73868027 170.767854 229.73868027 169.63037109 229.74307251 C168.0602136 229.74511226 166.49003064 229.7395885 164.91992188 229.72705078 C162.51634918 229.71099453 160.11445789 229.72690102 157.7109375 229.74609375 C156.18489212 229.7441113 154.65884779 229.74026759 153.1328125 229.734375 C152.41399902 229.74044769 151.69518555 229.74652039 150.95458984 229.7527771 C146.00078315 229.68294128 146.00078315 229.68294128 143.81935406 228.14742565 C142.02665283 225.67136455 142.12354232 224.00863782 142.10908508 220.96394348 C142.09654694 219.84915115 142.08400879 218.73435883 142.0710907 217.58578491 C142.07252579 216.36227325 142.07396088 215.1387616 142.07543945 213.87817383 C142.06015198 211.94630974 142.06015198 211.94630974 142.04455566 209.97541809 C142.01693693 206.44262823 142.00769463 202.90999934 142.00170159 199.37711549 C141.99233051 195.6854832 141.96612822 191.99397174 141.94169617 188.30241394 C141.89799248 181.31142582 141.86946936 174.32046109 141.84637278 167.32937783 C141.81934178 159.3705028 141.77542904 151.41174909 141.73008406 143.45296061 C141.63718241 127.08068103 141.56552704 110.70837972 141.5078125 94.3359375 C141.22115723 95.17402954 141.22115723 95.17402954 140.92871094 96.02905273 C140.04259107 98.61196951 139.15023668 101.19269248 138.2578125 103.7734375 C137.95746094 104.65193359 137.65710938 105.53042969 137.34765625 106.43554688 C135.34326806 112.21415539 133.05336915 117.77701876 130.5078125 123.3359375 C129.83942323 124.9528422 129.18121784 126.57408752 128.54296875 128.203125 C128.22054199 129.02014893 127.89811523 129.83717285 127.56591797 130.67895508 C127.23736816 131.51450928 126.90881836 132.35006348 126.5703125 133.2109375 C124.10255038 139.43955997 121.54789221 145.58516691 118.7109375 151.65625 C117.25149917 154.9068172 115.93854139 158.20915657 114.6328125 161.5234375 C112.45264969 167.04324246 110.18551846 172.51769798 107.8203125 177.9609375 C107.53494629 178.62375732 107.24958008 179.28657715 106.95556641 179.96948242 C102.46197932 190.23058458 102.46197932 190.23058458 97.5078125 193.3359375 C93.88489015 193.97134348 90.24321034 193.8454713 86.5703125 193.8359375 C85.58095703 193.86429688 84.59160156 193.89265625 83.57226562 193.921875 C78.98417311 193.93421688 76.34892833 193.92869236 72.53125 191.23828125 C70.3325143 188.08449626 68.59510354 184.91240438 67.0703125 181.3984375 C66.77447266 180.74166016 66.47863281 180.08488281 66.17382812 179.40820312 C63.71945001 173.92658348 61.37854761 168.39467025 59.0390625 162.86328125 C57.43574025 159.16991393 55.73533769 155.53463744 54.0078125 151.8984375 C51.32511785 146.23873172 48.91939875 140.51137234 46.63671875 134.67993164 C45.19572642 131.01146955 43.66805931 127.41022682 42.0078125 123.8359375 C38.20343331 115.61356957 34.76440351 107.20295352 31.91845703 98.60009766 C31.65292023 97.79883453 31.38738342 96.99757141 31.11380005 96.17202759 C30.91382416 95.56611786 30.71384827 94.96020813 30.5078125 94.3359375 C30.50542415 95.01346478 30.50303579 95.69099207 30.50057507 96.38905048 C30.44147679 112.86363975 30.36596018 129.33806321 30.27209759 145.81248951 C30.22710383 153.77935782 30.18769753 161.74618108 30.16137695 169.71313477 C30.13842574 176.65594878 30.10506022 183.59862062 30.05911094 190.54132193 C30.03513962 194.21853137 30.01643659 197.89559967 30.01019859 201.57288551 C30.00304527 205.67485311 29.9726448 209.77632846 29.94018555 213.87817383 C29.94162064 215.10168549 29.94305573 216.32519714 29.9445343 217.58578491 C29.93199615 218.70057724 29.91945801 219.81536957 29.90653992 220.96394348 C29.89962647 222.4199155 29.89962647 222.4199155 29.89257336 223.90530109 C29.5078125 226.3359375 29.5078125 226.3359375 28.18380451 228.14742565 C25.41210171 230.11294911 22.69214328 229.72568628 19.35546875 229.734375 C18.3106559 229.73868027 18.3106559 229.73868027 17.24473572 229.74307251 C15.77293077 229.74511201 14.30109865 229.73959002 12.8293457 229.72705078 C10.58157369 229.71101782 8.33560616 229.72688882 6.08789062 229.74609375 C4.65624604 229.74411082 3.22460258 229.74026611 1.79296875 229.734375 C0.49238525 229.73099121 -0.80819824 229.72760742 -2.14819336 229.72412109 C-5.86378864 229.29280062 -7.01591161 229.09360761 -9.4921875 226.3359375 C-9.88773669 223.26719801 -10.02333662 220.55579826 -9.98666382 217.48472595 C-9.99149265 216.56885808 -9.99632148 215.65299021 -10.00129664 214.70936877 C-10.01260632 211.6274926 -9.99521908 208.54643906 -9.97802734 205.46459961 C-9.98017223 203.26053136 -9.98404846 201.05646421 -9.98953247 198.85240173 C-9.99924712 192.85665771 -9.9838964 186.86121028 -9.96362638 180.86550212 C-9.94609583 174.60170866 -9.94957967 168.33792492 -9.9503479 162.07411194 C-9.94847334 151.55481489 -9.93119519 141.03561428 -9.90380859 130.51635742 C-9.87562636 119.68593253 -9.86146731 108.85560855 -9.86279297 98.02514648 C-9.86287288 97.35797845 -9.86295279 96.69081042 -9.86303513 96.00342517 C-9.86311584 95.33742624 -9.86319655 94.67142731 -9.8632797 93.9852466 C-9.86458852 82.2893645 -9.85430242 70.59351664 -9.83769608 58.89764595 C-9.8306191 53.91162354 -9.82696797 48.92561574 -9.82590866 43.93958855 C-9.82390536 38.07341041 -9.81174152 32.20733901 -9.79157639 26.34119606 C-9.78571533 24.18282601 -9.78327787 22.02444368 -9.78443146 19.86606598 C-9.78540697 16.93065085 -9.77416011 13.99553851 -9.75961304 11.06016541 C-9.76271024 10.19646503 -9.76580745 9.33276465 -9.7689985 8.44289154 C-9.70277206 0.40796002 -7.35119842 0.02269744 0 0 Z " fill="#FDFEFE" transform="translate(646.4921875,489.6640625)"/>
<path d="M0 0 C2.81387398 3.06968071 2.78304563 5.11657784 3.0625 9.25 C2.71020569 12.04993835 2.04843713 14.71606581 1.3125 17.4375 C1.14234375 18.13552734 0.9721875 18.83355469 0.796875 19.55273438 C-0.19826976 23.39794445 -1.15975531 26.38288983 -3.9375 29.25 C-6.25439453 29.69335938 -6.25439453 29.69335938 -8.9453125 29.59375 C-9.92790039 29.55765625 -10.91048828 29.5215625 -11.92285156 29.484375 C-16.59073267 29.12146879 -21.18568234 28.45247618 -25.8125 27.75 C-35.32394024 26.44367522 -44.71324569 25.91908383 -54.3125 25.875 C-55.5176123 25.86146484 -56.72272461 25.84792969 -57.96435547 25.83398438 C-68.70440973 25.88797711 -78.06157059 27.4886891 -85.9375 35.25 C-91.38916003 41.60469574 -94.57533514 48.269415 -96.9375 56.25 C-97.21335937 57.15105469 -97.48921875 58.05210937 -97.7734375 58.98046875 C-101.96997773 74.04230867 -102.37915924 89.95690659 -102.375 105.5 C-102.3760675 106.35841492 -102.37713501 107.21682983 -102.37823486 108.10125732 C-102.33608992 131.7971133 -101.69361186 160.40237357 -84.16015625 178.2578125 C-76.20634079 185.38689139 -66.92597679 186.61881558 -56.5625 186.5 C-55.73613037 186.49613281 -54.90976074 186.49226562 -54.05834961 186.48828125 C-48.59563402 186.41121345 -43.40436953 185.92131495 -38.06640625 184.6875 C-35.9375 184.25 -35.9375 184.25 -31.9375 184.25 C-31.9375 165.11 -31.9375 145.97 -31.9375 126.25 C-40.5175 126.25 -49.0975 126.25 -57.9375 126.25 C-61.48602333 122.70147667 -61.32107557 121.97151662 -61.3359375 117.15625 C-61.33980469 115.96128906 -61.34367188 114.76632812 -61.34765625 113.53515625 C-61.33605469 112.28605469 -61.32445312 111.03695312 -61.3125 109.75 C-61.32410156 108.50089844 -61.33570313 107.25179687 -61.34765625 105.96484375 C-61.34378906 104.76988281 -61.33992187 103.57492187 -61.3359375 102.34375 C-61.33255371 101.24740234 -61.32916992 100.15105469 -61.32568359 99.02148438 C-60.9375 96.25 -60.9375 96.25 -59.78627014 94.6010437 C-57.15116923 92.67536543 -55.21376748 92.86896943 -51.96899414 92.86181641 C-50.74084488 92.85235992 -49.51269562 92.84290344 -48.24732971 92.8331604 C-46.90576862 92.83853071 -45.56421046 92.84468381 -44.22265625 92.8515625 C-42.84646958 92.84954132 -41.47028396 92.84662951 -40.09410095 92.84286499 C-37.20984703 92.83844217 -34.32587189 92.84486998 -31.44165039 92.85888672 C-27.74819983 92.87596297 -24.05540402 92.86614776 -20.36197758 92.84816933 C-17.51976104 92.83731637 -14.67769909 92.84078494 -11.83547783 92.8485527 C-10.47394165 92.85055139 -9.11239135 92.84810706 -7.75087166 92.84111404 C-5.84571738 92.83347747 -3.94051379 92.847185 -2.03540039 92.86181641 C-0.41016197 92.86539658 -0.41016197 92.86539658 1.24790955 92.86904907 C4.49677416 93.30877841 5.69964413 94.01874639 8.0625 96.25 C8.56586456 98.28905964 8.56586456 98.28905964 8.57043457 100.67048645 C8.58171387 101.57466812 8.59299316 102.47884979 8.60461426 103.41043091 C8.59651733 104.40009857 8.58842041 105.38976624 8.58007812 106.40942383 C8.5870874 107.45360977 8.59409668 108.49779572 8.60131836 109.57362366 C8.61896272 113.03502791 8.60724969 116.49561826 8.59375 119.95703125 C8.59644366 122.35975807 8.60032502 124.76248383 8.60534668 127.16520691 C8.61125099 132.20667882 8.60265071 137.2478676 8.58398438 142.28930664 C8.56123148 148.74919931 8.57428944 155.20842592 8.59827423 161.66829395 C8.61273814 166.63287866 8.60812275 171.59730589 8.59776306 176.56189537 C8.59509553 178.94331631 8.59836643 181.32475156 8.60768127 183.70615578 C8.617852 187.03861879 8.60233527 190.37000932 8.58007812 193.70239258 C8.58817505 194.68598755 8.59627197 195.66958252 8.60461426 196.6829834 C8.53237209 202.52831009 7.87919433 205.75706168 4.0625 210.25 C0.82303465 213.35536983 -3.03248709 214.48434128 -7.25 215.75 C-7.95495605 215.96503174 -8.65991211 216.18006348 -9.38623047 216.40161133 C-16.48917152 218.50903381 -23.63587662 219.9842798 -30.9375 221.25 C-31.97261719 221.45625 -33.00773438 221.6625 -34.07421875 221.875 C-61.36964982 226.7096151 -89.82463094 224.09323606 -112.9375 208.25 C-113.85982422 207.61964844 -113.85982422 207.61964844 -114.80078125 206.9765625 C-134.28480168 192.16660627 -141.6790586 164.25285059 -145.02734375 141.2578125 C-146.31882422 131.17066392 -146.27373492 121.04329512 -146.25317383 110.88916016 C-146.2500253 107.65102051 -146.27351952 104.41380805 -146.29882812 101.17578125 C-146.39938413 68.23131436 -141.42060114 33.1509944 -118.25 8 C-90.12804385 -18.39223266 -32.8033408 -19.5424158 0 0 Z " fill="#FDFEFE" transform="translate(1008.9375,498.75)"/>
<path d="M0 0 C1.11140099 -0.00855011 1.11140099 -0.00855011 2.24525452 -0.01727295 C3.81119361 -0.02671035 5.37715245 -0.03325193 6.94311523 -0.03710938 C9.33547596 -0.04682553 11.72698106 -0.07786358 14.11914062 -0.109375 C15.64192199 -0.11590448 17.16470949 -0.12115517 18.6875 -0.125 C19.75797829 -0.1435202 19.75797829 -0.1435202 20.8500824 -0.16241455 C23.7116595 -0.14961059 25.99935625 0.00729758 28.60056686 1.2472887 C31.29382719 4.15821222 30.95058426 7.08826245 30.89117432 10.85295105 C30.89459202 11.63955638 30.89800972 12.42616171 30.90153098 13.23660356 C30.9081368 15.88100302 30.88608999 18.52439473 30.86425781 21.16870117 C30.86312992 23.060745 30.86376206 24.95279057 30.86602783 26.84483337 C30.86717816 31.98927227 30.84361725 37.1333401 30.815732 42.27769256 C30.79077144 47.65087373 30.78838057 53.02406288 30.78363037 58.39729309 C30.77118486 68.57582446 30.73834192 78.75418453 30.69823241 88.93264037 C30.65356371 100.51892241 30.63154 112.10521252 30.61145067 123.6915592 C30.56961069 147.52884287 30.49922801 171.36597435 30.41015625 195.203125 C31.61140137 195.19265137 32.81264648 195.18217773 34.05029297 195.17138672 C38.49687737 195.13525213 42.94344873 195.11224843 47.39013672 195.09326172 C49.31659119 195.08318918 51.24303033 195.06953057 53.16943359 195.05224609 C55.93460877 195.02805259 58.69958225 195.01665464 61.46484375 195.0078125 C62.76178665 194.99232864 62.76178665 194.99232864 64.08493042 194.97653198 C66.19469146 194.97613394 68.30396343 195.08047257 70.41015625 195.203125 C73.242752 198.03572075 72.66853886 199.9300716 72.67578125 203.890625 C72.6776947 204.54893311 72.67960815 205.20724121 72.68157959 205.88549805 C72.68294075 207.2775104 72.67924908 208.66953547 72.67089844 210.06152344 C72.66019725 212.19495089 72.67079531 214.32753631 72.68359375 216.4609375 C72.68227214 217.81250186 72.67970972 219.1640657 72.67578125 220.515625 C72.67352539 221.74925781 72.67126953 222.98289062 72.66894531 224.25390625 C72.41015625 227.203125 72.41015625 227.203125 70.41015625 229.203125 C68.36082554 229.45760059 68.36082554 229.45760059 65.786026 229.46382141 C64.81157028 229.47090622 63.83711456 229.47799103 62.83312988 229.48529053 C61.7603479 229.48281311 60.68756592 229.48033569 59.58227539 229.4777832 C58.45538803 229.48289413 57.32850067 229.48800507 56.16746521 229.49327087 C52.42669425 229.50721913 48.68610644 229.50620616 44.9453125 229.50390625 C42.35460847 229.50779029 39.76390507 229.51212434 37.17320251 229.51689148 C31.73661977 229.52436496 26.30010854 229.52419179 20.86352539 229.51879883 C14.57641996 229.51275813 8.28953828 229.52507032 2.00247103 229.5463689 C-4.04170486 229.56609303 -10.08576335 229.56916054 -16.12997627 229.56563377 C-18.70367521 229.56614854 -21.27737761 229.57141511 -23.85105705 229.58144569 C-27.44507127 229.59373288 -31.03856298 229.58706452 -34.63256836 229.57543945 C-36.23870499 229.58690506 -36.23870499 229.58690506 -37.87728882 229.59860229 C-38.85456436 229.59158798 -39.8318399 229.58457367 -40.83872986 229.5773468 C-42.11382117 229.57759841 -42.11382117 229.57759841 -43.4146719 229.57785511 C-46.09762613 229.11564623 -46.98284734 228.37085287 -48.58984375 226.203125 C-48.97802734 223.33984375 -48.97802734 223.33984375 -48.98828125 219.890625 C-48.99214844 218.65054688 -48.99601562 217.41046875 -49 216.1328125 C-48.98839844 214.83601562 -48.97679687 213.53921875 -48.96484375 212.203125 C-48.97644531 210.90632812 -48.98804688 209.60953125 -49 208.2734375 C-48.99613281 207.03335938 -48.99226563 205.79328125 -48.98828125 204.515625 C-48.98489746 203.37738281 -48.98151367 202.23914063 -48.97802734 201.06640625 C-48.58984375 198.203125 -48.58984375 198.203125 -45.58984375 195.203125 C-33.37984375 195.203125 -21.16984375 195.203125 -8.58984375 195.203125 C-8.58984375 144.383125 -8.58984375 93.563125 -8.58984375 41.203125 C-20.13984375 41.203125 -31.68984375 41.203125 -43.58984375 41.203125 C-46.86600195 37.9269668 -46.03961664 33.84514157 -46.08984375 29.390625 C-46.15171875 28.03614258 -46.15171875 28.03614258 -46.21484375 26.65429688 C-46.22515625 25.77708984 -46.23546875 24.89988281 -46.24609375 23.99609375 C-46.27413086 22.79762817 -46.27413086 22.79762817 -46.30273438 21.57495117 C-45.21341657 17.95073114 -42.62573284 16.21540325 -39.58984375 14.203125 C-36.29418945 12.45800781 -36.29418945 12.45800781 -32.765625 10.90625 C-32.1375444 10.62714783 -31.50946381 10.34804565 -30.86235046 10.06048584 C-28.87958154 9.18218855 -26.89114804 8.31765443 -24.90234375 7.453125 C-23.55756046 6.85893728 -22.21315564 6.26389223 -20.86914062 5.66796875 C-13.68623156 2.49605483 -7.92032861 0.04703303 0 0 Z " fill="#FEFEFE" transform="translate(350.58984375,489.796875)"/>
<path d="M0 0 C1.29292969 -0.00257813 2.58585938 -0.00515625 3.91796875 -0.0078125 C4.59263184 -0.00362305 5.26729492 0.00056641 5.96240234 0.00488281 C8.02341157 0.0155843 10.08354919 0.00498557 12.14453125 -0.0078125 C13.43746094 -0.00523437 14.73039063 -0.00265625 16.0625 0 C17.25423828 0.00225586 18.44597656 0.00451172 19.67382812 0.00683594 C22.53125 0.265625 22.53125 0.265625 24.53125 2.265625 C24.77175903 4.51821899 24.77175903 4.51821899 24.75830078 7.35791016 C24.75814972 8.41885895 24.75799866 9.47980774 24.75784302 10.57290649 C24.74752045 11.72189423 24.73719788 12.87088196 24.7265625 14.0546875 C24.7237326 15.22824799 24.72090271 16.40180847 24.71798706 17.6109314 C24.70676355 21.37093162 24.68165492 25.13069639 24.65625 28.890625 C24.64622301 31.4348924 24.63709668 33.97916352 24.62890625 36.5234375 C24.60681714 42.7709141 24.57331824 49.01825273 24.53125 55.265625 C25.40781754 55.25896317 25.40781754 55.25896317 26.30209351 55.25216675 C32.36868858 55.20801738 38.43523823 55.17779366 44.50195312 55.15576172 C46.76792249 55.14568641 49.03387881 55.13202582 51.29980469 55.11474609 C54.55146501 55.09056489 57.80295387 55.07915737 61.0546875 55.0703125 C62.58130508 55.05482864 62.58130508 55.05482864 64.13876343 55.03903198 C65.54999985 55.03880539 65.54999985 55.03880539 66.98974609 55.03857422 C68.23550919 55.03191238 68.23550919 55.03191238 69.50643921 55.02511597 C71.53125 55.265625 71.53125 55.265625 73.53125 57.265625 C73.79003906 59.75585938 73.79003906 59.75585938 73.796875 62.859375 C73.79945313 63.97183594 73.80203125 65.08429688 73.8046875 66.23046875 C73.79695312 67.39707031 73.78921875 68.56367187 73.78125 69.765625 C73.78898438 70.93222656 73.79671875 72.09882812 73.8046875 73.30078125 C73.80210937 74.41324219 73.79953125 75.52570313 73.796875 76.671875 C73.79461914 77.69603516 73.79236328 78.72019531 73.79003906 79.77539062 C73.53125 82.265625 73.53125 82.265625 71.53125 84.265625 C69.50643921 84.50613403 69.50643921 84.50613403 66.98974609 84.49267578 C66.04892181 84.49252472 65.10809753 84.49237366 64.13876343 84.49221802 C63.12101837 84.48189545 62.10327332 84.47157288 61.0546875 84.4609375 C60.01430328 84.4581076 58.97391907 84.45527771 57.90200806 84.45236206 C54.56997306 84.44114204 51.23820414 84.41603415 47.90625 84.390625 C45.65104554 84.38059756 43.39583688 84.3714713 41.140625 84.36328125 C35.60407546 84.34119678 30.06768173 84.30770139 24.53125 84.265625 C24.53569122 84.96275604 24.54013245 85.65988708 24.54470825 86.37814331 C24.58474586 92.94090226 24.61521442 99.50362725 24.63487434 106.06648064 C24.64532142 109.44069494 24.65949725 112.81480852 24.68212891 116.18896484 C24.70629885 120.06610818 24.71771511 123.94310777 24.7265625 127.8203125 C24.73688507 129.03492157 24.74720764 130.24953064 24.75784302 131.50094604 C24.75799408 132.62195709 24.75814514 133.74296814 24.75830078 134.89794922 C24.762742 135.88834198 24.76718323 136.87873474 24.77175903 137.8991394 C24.53125 140.265625 24.53125 140.265625 22.53125 142.265625 C19.67382812 142.52441406 19.67382812 142.52441406 16.0625 142.53125 C14.76957031 142.53382813 13.47664062 142.53640625 12.14453125 142.5390625 C11.46986816 142.53487305 10.79520508 142.53068359 10.10009766 142.52636719 C8.03908843 142.5156657 5.97895081 142.52626443 3.91796875 142.5390625 C2.62503906 142.53648437 1.33210937 142.53390625 0 142.53125 C-1.19173828 142.52899414 -2.38347656 142.52673828 -3.61132812 142.52441406 C-6.46875 142.265625 -6.46875 142.265625 -8.46875 140.265625 C-8.70925903 137.8991394 -8.70925903 137.8991394 -8.69580078 134.89794922 C-8.69564972 133.77693817 -8.69549866 132.65592712 -8.69534302 131.50094604 C-8.68502045 130.28633698 -8.67469788 129.07172791 -8.6640625 127.8203125 C-8.6612326 126.58016388 -8.65840271 125.34001526 -8.65548706 124.06228638 C-8.64617174 120.76437867 -8.6281989 117.46666528 -8.6060791 114.16882324 C-8.58562474 110.8039793 -8.57648623 107.43910693 -8.56640625 104.07421875 C-8.54431519 97.47127777 -8.51081483 90.86846729 -8.46875 84.265625 C-9.05312836 84.27006622 -9.63750671 84.27450745 -10.23959351 84.27908325 C-16.30618858 84.32323262 -22.37273823 84.35345634 -28.43945312 84.37548828 C-30.70542249 84.38556359 -32.97137881 84.39922418 -35.23730469 84.41650391 C-38.48896501 84.44068511 -41.74045387 84.45209263 -44.9921875 84.4609375 C-46.51880508 84.47642136 -46.51880508 84.47642136 -48.07626343 84.49221802 C-49.01708771 84.49236908 -49.95791199 84.49252014 -50.92724609 84.49267578 C-52.17300919 84.49933762 -52.17300919 84.49933762 -53.44393921 84.50613403 C-55.46875 84.265625 -55.46875 84.265625 -57.46875 82.265625 C-57.72753906 79.77539062 -57.72753906 79.77539062 -57.734375 76.671875 C-57.73695313 75.55941406 -57.73953125 74.44695312 -57.7421875 73.30078125 C-57.73058594 71.55087891 -57.73058594 71.55087891 -57.71875 69.765625 C-57.72648437 68.59902344 -57.73421875 67.43242188 -57.7421875 66.23046875 C-57.73960937 65.11800781 -57.73703125 64.00554688 -57.734375 62.859375 C-57.73211914 61.83521484 -57.72986328 60.81105469 -57.72753906 59.75585938 C-57.46875 57.265625 -57.46875 57.265625 -55.46875 55.265625 C-53.44393921 55.02511597 -53.44393921 55.02511597 -50.92724609 55.03857422 C-49.51600967 55.03880081 -49.51600967 55.03880081 -48.07626343 55.03903198 C-47.05851837 55.04935455 -46.04077332 55.05967712 -44.9921875 55.0703125 C-43.95180328 55.0731424 -42.91141907 55.07597229 -41.83950806 55.07888794 C-38.50747306 55.09010796 -35.17570414 55.11521585 -31.84375 55.140625 C-29.58854554 55.15065244 -27.33333688 55.1597787 -25.078125 55.16796875 C-19.54157546 55.19005322 -14.00518173 55.22354861 -8.46875 55.265625 C-8.47319122 54.60607819 -8.47763245 53.94653137 -8.48220825 53.26699829 C-8.52634777 46.42183594 -8.55657726 39.57671379 -8.57861328 32.73144531 C-8.58869038 30.17446247 -8.60235226 27.61749121 -8.61962891 25.06054688 C-8.64380217 21.39189808 -8.65521585 17.72340121 -8.6640625 14.0546875 C-8.67438507 12.90569977 -8.68470764 11.75671204 -8.69534302 10.57290649 C-8.69556961 8.98148331 -8.69556961 8.98148331 -8.69580078 7.35791016 C-8.700242 6.42081207 -8.70468323 5.48371399 -8.70925903 4.51821899 C-8.14933436 -0.72600377 -4.32891542 0.00819427 0 0 Z " fill="#FEFEFE" transform="translate(524.46875,536.734375)"/>
<path d="M0 0 C2.0865042 3.1297563 2.96132195 5.69924248 4.05859375 9.28515625 C4.63770508 11.16557617 4.63770508 11.16557617 5.22851562 13.08398438 C5.63159963 14.41012914 6.03459389 15.73630118 6.4375 17.0625 C6.83614693 18.36146374 7.23523128 19.66029332 7.63476562 20.95898438 C9.78575816 27.96402122 11.89433267 34.9811089 14 42 C29.84 42.33 45.68 42.66 62 43 C58.3722384 46.6277616 54.84264881 49.83212119 50.8125 52.9375 C50.22388184 53.39552002 49.63526367 53.85354004 49.02880859 54.32543945 C47.73568775 55.33107034 46.44136026 56.33515104 45.14599609 57.33789062 C42.78824282 59.16400943 40.43485479 60.99565944 38.08203125 62.828125 C33.72381693 66.22192491 29.36279624 69.61209285 25 73 C25.60895268 78.33029606 26.8477601 83.11720878 28.5390625 88.19921875 C29.04191426 89.75317511 29.544511 91.30721401 30.046875 92.86132812 C30.83766352 95.28521327 31.63174232 97.70793332 32.43066406 100.12915039 C33.20492015 102.48303138 33.96644915 104.84073958 34.7265625 107.19921875 C34.9691983 107.9221965 35.21183411 108.64517426 35.46182251 109.39006042 C37.44749321 115.59041047 37.44749321 115.59041047 36 119 C33.70657421 117.29399117 31.41526796 115.58524082 29.125 113.875 C28.41698242 113.34817627 27.70896484 112.82135254 26.97949219 112.27856445 C22.95395188 109.26819477 18.98405225 106.20545048 15.0703125 103.05078125 C13.8635083 102.08519287 13.8635083 102.08519287 12.63232422 101.10009766 C11.06038787 99.83810244 9.49666277 98.56580156 7.94189453 97.28271484 C7.22372559 96.70859863 6.50555664 96.13448242 5.765625 95.54296875 C4.81864746 94.7698938 4.81864746 94.7698938 3.85253906 93.98120117 C2.05358595 92.8150482 2.05358595 92.8150482 0.0065918 93.16552734 C-2.27877432 94.11593267 -3.93384074 95.26680624 -5.87109375 96.80859375 C-6.60448975 97.38649658 -7.33788574 97.96439941 -8.09350586 98.55981445 C-8.86702393 99.17945068 -9.64054199 99.79908691 -10.4375 100.4375 C-12.05194352 101.71111474 -13.66652795 102.9845509 -15.28125 104.2578125 C-16.07789063 104.88977539 -16.87453125 105.52173828 -17.6953125 106.17285156 C-20.92934701 108.73678316 -24.17771022 111.28143051 -27.4375 113.8125 C-28.44683594 114.60269531 -29.45617187 115.39289063 -30.49609375 116.20703125 C-33 118 -33 118 -36 119 C-33.99208165 108.77787021 -30.6728063 98.92445655 -27.33984375 89.0703125 C-27.06495117 88.25618896 -26.79005859 87.44206543 -26.50683594 86.60327148 C-25.96913186 85.01787761 -25.42695785 83.4339913 -24.87988281 81.85180664 C-23.83629692 78.78515889 -23 76.26336804 -23 73 C-25.33237012 71.03717424 -27.64786711 69.26318217 -30.125 67.5 C-31.59742497 66.4259456 -33.06875839 65.35039338 -34.5390625 64.2734375 C-35.28575195 63.72913086 -36.03244141 63.18482422 -36.80175781 62.62402344 C-40.0904443 60.19439854 -43.29807635 57.66728853 -46.5 55.125 C-50.25155842 52.15176883 -54.02085977 49.2148928 -57.875 46.375 C-58.90625 45.59125 -59.9375 44.8075 -61 44 C-61 43.67 -61 43.34 -61 43 C-45.16 42.67 -29.32 42.34 -13 42 C-11.02 35.07 -9.04 28.14 -7 21 C-5.73939307 17.04374097 -4.47283552 13.11153931 -3.125 9.1875 C-2.81820312 8.28064453 -2.51140625 7.37378906 -2.1953125 6.43945312 C-1.4679383 4.2914262 -0.73633685 2.14496698 0 0 Z " fill="#B8D2E0" transform="translate(649,70)"/>
<path d="M0 0 C2.58884842 2.58884842 3.03083823 4.82477554 4.09375 8.328125 C4.28594116 8.95475037 4.47813232 9.58137573 4.67614746 10.22698975 C5.29004347 12.23290273 5.89523056 14.24131867 6.5 16.25 C7.10667637 18.24377891 7.7151111 20.23701433 8.32385254 22.23016357 C8.87823925 24.04874022 9.4284881 25.86857675 9.97851562 27.68847656 C10.65035164 29.86648414 11.36689079 32.03128628 12.13085938 34.17871094 C13 37 13 37 13 41 C28.84 41 44.68 41 61 41 C57.73296426 44.26703574 54.91233129 46.97588985 51.3046875 49.70703125 C50.42296875 50.37669922 49.54125 51.04636719 48.6328125 51.73632812 C47.72273438 52.42146484 46.81265625 53.10660156 45.875 53.8125 C44.988125 54.48603516 44.10125 55.15957031 43.1875 55.85351562 C36.85118884 60.6516643 30.44252559 65.34568326 24 70 C24.59856812 71.8394519 24.59856812 71.8394519 25.20922852 73.71606445 C26.68481635 78.25861009 28.14873811 82.80484371 29.60913086 87.35229492 C30.24331211 89.32142364 30.8806695 91.28953234 31.52124023 93.2565918 C32.44046926 96.08120958 33.34828196 98.90927672 34.25390625 101.73828125 C34.54342667 102.61962234 34.83294708 103.50096344 35.13124084 104.40901184 C35.39158615 105.22963608 35.65193146 106.05026031 35.92016602 106.89575195 C36.15333023 107.61745071 36.38649445 108.33914948 36.62672424 109.0827179 C37 111 37 111 36 114 C34.98164063 113.21238281 33.96328125 112.42476562 32.9140625 111.61328125 C22.42424704 103.5304312 11.77754645 95.69444116 1 88 C-5.32866107 92.12837389 -11.44767756 96.47803641 -17.5 101 C-23.55232244 105.52196359 -29.67133893 109.87162611 -36 114 C-34.41667939 107.74457236 -32.58322653 101.60531493 -30.484375 95.50390625 C-30.2627771 94.85722992 -30.0411792 94.21055359 -29.81286621 93.54428101 C-28.89270622 90.86543611 -27.96922883 88.18789871 -27.03222656 85.51489258 C-26.34012642 83.53519186 -25.66130218 81.55133744 -24.984375 79.56640625 C-24.57928711 78.40052979 -24.17419922 77.23465332 -23.75683594 76.03344727 C-22.83133454 72.38957635 -22.83133454 72.38957635 -24 69 C-25.81936654 67.16017756 -25.81936654 67.16017756 -28.1640625 65.49609375 C-29.03264893 64.84261963 -29.90123535 64.18914551 -30.79614258 63.51586914 C-31.72966553 62.83000732 -32.66318848 62.14414551 -33.625 61.4375 C-35.03978638 60.37873657 -35.03978638 60.37873657 -36.4831543 59.29858398 C-42.85736042 54.53994761 -49.26577489 49.82181567 -55.73095703 45.18725586 C-57.1709161 44.14791907 -58.58846508 43.07762343 -60 42 C-60 41.67 -60 41.34 -60 41 C-44.49 41 -28.98 41 -13 41 C-11.515 35.06 -11.515 35.06 -10 29 C-9.21259138 26.48212538 -8.39103705 23.97439158 -7.51953125 21.484375 C-7.30181564 20.85766907 -7.08410004 20.23096313 -6.85978699 19.58526611 C-6.18223685 17.6384319 -5.49756053 15.69420228 -4.8125 13.75 C-4.34391935 12.40772014 -3.87581764 11.06527299 -3.40820312 9.72265625 C-2.27762966 6.47983068 -1.14066348 3.2392923 0 0 Z " fill="#B8D2E0" transform="translate(216,829)"/>
<path d="M0 0 C2.62029977 2.62029977 3.22862812 5.47339205 4.25 8.9375 C4.68545767 10.37913006 5.12169052 11.82052613 5.55859375 13.26171875 C5.7891748 14.02661621 6.01975586 14.79151367 6.25732422 15.57958984 C7.03366052 18.10970098 7.84231335 20.62754513 8.66015625 23.14453125 C8.93504883 23.99474854 9.20994141 24.84496582 9.49316406 25.72094727 C10.03157402 27.38286287 10.57377979 29.04355443 11.12011719 30.70288086 C11.36536133 31.46608643 11.61060547 32.22929199 11.86328125 33.015625 C12.08282471 33.68883789 12.30236816 34.36205078 12.52856445 35.05566406 C13 37 13 37 13 41 C28.84 41 44.68 41 61 41 C57.73296426 44.26703574 54.91233129 46.97588985 51.3046875 49.70703125 C50.42296875 50.37669922 49.54125 51.04636719 48.6328125 51.73632812 C47.72273438 52.42146484 46.81265625 53.10660156 45.875 53.8125 C44.988125 54.48603516 44.10125 55.15957031 43.1875 55.85351562 C36.85118884 60.6516643 30.44252559 65.34568326 24 70 C24.59856812 71.8394519 24.59856812 71.8394519 25.20922852 73.71606445 C26.68481635 78.25861009 28.14873811 82.80484371 29.60913086 87.35229492 C30.24331211 89.32142364 30.8806695 91.28953234 31.52124023 93.2565918 C32.44046926 96.08120958 33.34828196 98.90927672 34.25390625 101.73828125 C34.54342667 102.61962234 34.83294708 103.50096344 35.13124084 104.40901184 C35.39158615 105.22963608 35.65193146 106.05026031 35.92016602 106.89575195 C36.15333023 107.61745071 36.38649445 108.33914948 36.62672424 109.0827179 C37 111 37 111 36 114 C35.27039063 113.42894531 34.54078125 112.85789062 33.7890625 112.26953125 C27.11519327 107.0759645 20.35080726 102.02056024 13.5 97.0625 C12.73510254 96.50731689 11.97020508 95.95213379 11.18212891 95.38012695 C7.53788533 92.75406879 3.90872526 90.22580188 0 88 C-0.79096069 88.59518433 -0.79096069 88.59518433 -1.59790039 89.20239258 C-12.68120387 97.53862442 -23.79214937 105.83185432 -35 114 C-36 112 -36 112 -35.3984375 109.99609375 C-35.06070313 109.15175781 -34.72296875 108.30742187 -34.375 107.4375 C-32.53185858 102.59212822 -30.989066 97.72861961 -29.5625 92.75 C-27.26199733 84.75357147 -24.69303455 76.87282866 -22 69 C-22.53625 68.75636719 -23.0725 68.51273437 -23.625 68.26171875 C-26.59625352 66.68324032 -29.27858829 64.77840237 -32 62.8125 C-32.58797363 62.38976807 -33.17594727 61.96703613 -33.78173828 61.53149414 C-39.51787535 57.3856385 -45.20121917 53.16811876 -50.875 48.9375 C-51.77347656 48.27016846 -52.67195312 47.60283691 -53.59765625 46.9152832 C-54.42910156 46.29226318 -55.26054687 45.66924316 -56.1171875 45.02734375 C-57.24036377 44.18804321 -57.24036377 44.18804321 -58.38623047 43.33178711 C-58.91877441 42.89229736 -59.45131836 42.45280762 -60 42 C-60 41.67 -60 41.34 -60 41 C-44.49 41 -28.98 41 -13 41 C-11.515 35.06 -11.515 35.06 -10 29 C-9.21259138 26.48212538 -8.39103705 23.97439158 -7.51953125 21.484375 C-7.30181564 20.85766907 -7.08410004 20.23096313 -6.85978699 19.58526611 C-6.18223685 17.6384319 -5.49756053 15.69420228 -4.8125 13.75 C-4.34391935 12.40772014 -3.87581764 11.06527299 -3.40820312 9.72265625 C-2.27762966 6.47983068 -1.14066348 3.2392923 0 0 Z " fill="#B8D2E0" transform="translate(216,324)"/>
<path d="M0 0 C2.92502868 2.92502868 3.623433 6.57100417 4.8203125 10.4375 C5.08383514 11.27337646 5.34735779 12.10925293 5.61886597 12.97045898 C6.17479346 14.73817351 6.72770467 16.50683902 7.27783203 18.27636719 C8.12225438 20.99117287 8.97633278 23.70279249 9.83203125 26.4140625 C10.37036313 28.13002916 10.90814235 29.84616932 11.4453125 31.5625 C11.70152374 32.37710693 11.95773499 33.19171387 12.22171021 34.03100586 C14 39.76749374 14 39.76749374 14 42 C29.51 42 45.02 42 61 42 C57.7251272 45.2748728 54.88489609 47.99812374 51.26953125 50.7421875 C50.38330078 51.41636719 49.49707031 52.09054687 48.58398438 52.78515625 C47.66939453 53.47480469 46.75480469 54.16445313 45.8125 54.875 C44.91724609 55.55691406 44.02199219 56.23882813 43.09960938 56.94140625 C37.16493177 61.44062032 31.13196292 65.77397341 25 70 C25.58641824 75.18002779 26.79586855 79.84341891 28.5390625 84.76171875 C29.04188964 86.22453275 29.54448714 87.6874257 30.046875 89.15039062 C30.83771546 91.42948041 31.63194759 93.70730062 32.43066406 95.98364258 C33.20507059 98.19830271 33.96649028 100.4171058 34.7265625 102.63671875 C34.9691983 103.31594894 35.21183411 103.99517914 35.46182251 104.69499207 C36.62707156 108.11859704 37.43152522 110.567061 36 114 C34.06094201 112.62715959 32.12371043 111.25184907 30.1875 109.875 C29.57600098 109.4413916 28.96450195 109.0077832 28.33447266 108.56103516 C24.50765935 105.83382636 20.72824862 103.05374681 16.98046875 100.21875 C16.13395752 99.58211426 15.28744629 98.94547852 14.4152832 98.28955078 C12.73732185 97.02491138 11.06513584 95.75256816 9.39916992 94.47216797 C8.23865112 93.60035889 8.23865112 93.60035889 7.0546875 92.7109375 C6.02577393 91.92662354 6.02577393 91.92662354 4.97607422 91.12646484 C2.79992761 89.66984195 2.79992761 89.66984195 -1 90 C-2.93635994 90.99922826 -2.93635994 90.99922826 -4.80078125 92.45703125 C-5.52410645 92.9878833 -6.24743164 93.51873535 -6.99267578 94.06567383 C-7.75821777 94.64212646 -8.52375977 95.2185791 -9.3125 95.8125 C-10.10124512 96.39475342 -10.88999023 96.97700684 -11.70263672 97.5769043 C-13.33372656 98.7818167 -14.96196166 99.9906026 -16.58740234 101.203125 C-19.58578608 103.43628674 -22.6030402 105.64293256 -25.62182617 107.84838867 C-28.41903116 109.89285404 -31.20958149 111.9462849 -34 114 C-35.40204707 109.79385879 -33.8370227 106.81092056 -32.4375 102.7890625 C-31.88269237 101.13545697 -31.32800874 99.48180983 -30.7734375 97.828125 C-29.88813785 95.22430251 -28.99892847 92.62187674 -28.10644531 90.02050781 C-27.24837251 87.50914491 -26.40487383 84.99322654 -25.5625 82.4765625 C-25.29171631 81.70245026 -25.02093262 80.92833801 -24.74194336 80.13076782 C-22.87094646 74.60747003 -22.87094646 74.60747003 -24 69 C-25.5839734 67.25292631 -25.5839734 67.25292631 -27.69140625 65.87109375 C-28.46444092 65.31639404 -29.23747559 64.76169434 -30.03393555 64.19018555 C-31.28557495 63.3226062 -31.28557495 63.3226062 -32.5625 62.4375 C-34.28954611 61.20380173 -36.01609966 59.96941366 -37.7421875 58.734375 C-38.61713867 58.11498047 -39.49208984 57.49558594 -40.39355469 56.85742188 C-44.36817661 54.02500116 -48.28109673 51.11293913 -52.1875 48.1875 C-52.87593994 47.67823975 -53.56437988 47.16897949 -54.27368164 46.64428711 C-55.86797245 45.45437371 -57.43713152 44.23089366 -59 43 C-59 42.67 -59 42.34 -59 42 C-43.82 42 -28.64 42 -13 42 C-11.515 36.555 -11.515 36.555 -10 31 C-9.19322013 28.37526571 -8.36801037 25.75608386 -7.51953125 23.14453125 C-7.30181564 22.47201828 -7.08410004 21.79950531 -6.85978699 21.10661316 C-6.17973631 19.00779465 -5.49619967 16.91013228 -4.8125 14.8125 C-4.34416694 13.36921657 -3.8760664 11.92585766 -3.40820312 10.48242188 C-2.27480931 6.98740883 -1.13829151 3.49342143 0 0 Z " fill="#B8D2E0" transform="translate(149,572)"/>
<path d="M0 0 C0.66 0 1.32 0 2 0 C2.36351562 1.22332031 2.72703125 2.44664062 3.1015625 3.70703125 C6.03012302 13.52978856 9.01252228 23.32945415 12.17041016 33.08129883 C14 38.78664959 14 38.78664959 14 41 C29.51 41 45.02 41 61 41 C57.7083033 44.2916967 54.87563859 47.00055621 51.234375 49.7421875 C50.34363281 50.41636719 49.45289063 51.09054688 48.53515625 51.78515625 C47.61605469 52.47480469 46.69695312 53.16445312 45.75 53.875 C43.93196116 55.24695798 42.11424999 56.61935028 40.296875 57.9921875 C39.41451172 58.65573242 38.53214844 59.31927734 37.62304688 60.00292969 C34.30050505 62.5325641 31.0373746 65.13391416 27.78613281 67.75439453 C26 69 26 69 24 69 C24.39904541 70.19077148 24.79809082 71.38154297 25.20922852 72.60839844 C26.68640668 77.02550809 28.1498296 81.44707255 29.60913086 85.87011719 C30.24275172 87.78412274 30.88010075 89.69689829 31.52124023 91.60839844 C32.4419582 94.35557552 33.34919513 97.10689139 34.25390625 99.859375 C34.68818687 101.14083405 34.68818687 101.14083405 35.13124084 102.44818115 C35.5217588 103.64897308 35.5217588 103.64897308 35.92016602 104.87402344 C36.15333023 105.57573669 36.38649445 106.27744995 36.62672424 107.00042725 C37.05689186 109.30475973 36.71969362 110.79062516 36 113 C35.50298584 112.63350342 35.00597168 112.26700684 34.49389648 111.8894043 C23.67351962 103.91132079 12.84562444 95.9437309 2 88 C-0.83221729 89.34039669 -3.33371319 90.85196148 -5.87109375 92.6875 C-6.60457031 93.21706299 -7.33804688 93.74662598 -8.09375 94.29223633 C-8.8671875 94.85579834 -9.640625 95.41936035 -10.4375 96 C-11.63052734 96.86371216 -11.63052734 96.86371216 -12.84765625 97.74487305 C-18.86846634 102.12314903 -24.76452478 106.64000768 -30.59375 111.26953125 C-33 113 -33 113 -35 113 C-33.78153706 106.99071486 -32.20772807 101.2485135 -30.1796875 95.46484375 C-29.91616486 94.70071671 -29.65264221 93.93658966 -29.38113403 93.14930725 C-28.55036362 90.74374715 -27.71281809 88.34061338 -26.875 85.9375 C-26.30553688 84.29247435 -25.73652246 82.6472933 -25.16796875 81.00195312 C-23.78381833 76.99948968 -22.39359276 72.99918506 -21 69 C-21.74386963 68.72994141 -22.48773926 68.45988281 -23.25415039 68.18164062 C-25.87888157 67.05212174 -27.71727531 65.8715007 -29.93359375 64.09375 C-30.65877197 63.51915039 -31.3839502 62.94455078 -32.13110352 62.35253906 C-32.89221436 61.74120117 -33.6533252 61.12986328 -34.4375 60.5 C-40.77883475 55.47364075 -47.18120953 50.60968454 -53.84741211 46.02148438 C-57.89872905 43.2025419 -57.89872905 43.2025419 -59 41 C-43.49 41 -27.98 41 -12 41 C-11.67 38.69 -11.34 36.38 -11 34 C-10.66791935 32.68333118 -10.30026828 31.37438039 -9.87670898 30.08422852 C-9.65655624 29.40405167 -9.4364035 28.72387482 -9.20957947 28.02308655 C-8.97412918 27.31550705 -8.73867889 26.60792755 -8.49609375 25.87890625 C-8.2533522 25.13414536 -8.01061066 24.38938446 -7.76051331 23.62205505 C-6.99158039 21.26705977 -6.21468598 18.9147829 -5.4375 16.5625 C-4.91157895 14.95655382 -4.38618307 13.35043555 -3.86132812 11.74414062 C-2.58028185 7.82741137 -1.29209361 3.91309804 0 0 Z " fill="#B8D2E0" transform="translate(900,139)"/>
<path d="M0 0 C2.9391944 2.9391944 3.62621173 6.62012346 4.8203125 10.5078125 C5.17113892 11.62530884 5.17113892 11.62530884 5.52905273 12.76538086 C6.40118036 15.54979612 7.2624368 18.33760702 8.125 21.125 C10.06375 27.35375 12.0025 33.5825 14 40 C37.265 40.495 37.265 40.495 61 41 C57.97899294 44.02100706 55.36367173 46.63551063 52.06640625 49.19921875 C51.34114746 49.76431152 50.61588867 50.3294043 49.86865234 50.91162109 C49.10762207 51.49766113 48.3465918 52.08370117 47.5625 52.6875 C46.77568848 53.29674316 45.98887695 53.90598633 45.17822266 54.53369141 C38.24619437 59.87173137 31.17444532 64.99403655 24 70 C24.84956998 72.89725148 25.70364937 75.79299408 26.5625 78.6875 C26.82554932 79.57493896 27.08859863 80.46237793 27.35961914 81.37670898 C28.82017147 86.24820355 30.34649156 91.08609631 31.9921875 95.8984375 C32.31630615 96.84630127 32.6404248 97.79416504 32.97436523 98.77075195 C33.60910385 100.61060901 34.25166998 102.44778697 34.90258789 104.28198242 C35.19125732 105.11834229 35.47992676 105.95470215 35.77734375 106.81640625 C36.03765381 107.55318604 36.29796387 108.28996582 36.56616211 109.04907227 C37 111 37 111 36 114 C35.55833496 113.65855957 35.11666992 113.31711914 34.66162109 112.96533203 C26.93260929 106.9991825 19.19363127 101.05397106 11.25 95.375 C10.69103027 94.9742627 10.13206055 94.57352539 9.55615234 94.16064453 C6.45026587 91.95729101 3.29180244 89.91412216 0 88 C-0.44166504 88.34144043 -0.88333008 88.68288086 -1.33837891 89.03466797 C-9.06739071 95.0008175 -16.80636873 100.94602894 -24.75 106.625 C-25.30896973 107.0257373 -25.86793945 107.42647461 -26.44384766 107.83935547 C-29.54973413 110.04270899 -32.70819756 112.08587784 -36 114 C-34.41667939 107.74457236 -32.58322653 101.60531493 -30.484375 95.50390625 C-30.2627771 94.85722992 -30.0411792 94.21055359 -29.81286621 93.54428101 C-28.89270622 90.86543611 -27.96922883 88.18789871 -27.03222656 85.51489258 C-26.34012642 83.53519186 -25.66130218 81.55133744 -24.984375 79.56640625 C-24.57928711 78.40052979 -24.17419922 77.23465332 -23.75683594 76.03344727 C-22.83016412 72.38915602 -22.83016412 72.38915602 -24 69 C-25.83575394 67.14381309 -25.83575394 67.14381309 -28.19921875 65.4609375 C-29.07296143 64.80230713 -29.9467041 64.14367676 -30.84692383 63.46508789 C-32.25300903 62.43049438 -32.25300903 62.43049438 -33.6875 61.375 C-34.63326904 60.66657959 -35.57903809 59.95815918 -36.5534668 59.22827148 C-42.66300051 54.66932819 -48.82321655 50.17726086 -55.08666992 45.83154297 C-56.40707634 44.91015935 -57.70646248 43.95873957 -59 43 C-59 42.67 -59 42.34 -59 42 C-43.82 42 -28.64 42 -13 42 C-12.34 39.03 -11.68 36.06 -11 33 C-10.16933411 30.27926585 -9.31567108 27.59237279 -8.3984375 24.90234375 C-8.0364476 23.82274132 -8.0364476 23.82274132 -7.66714478 22.72132874 C-6.90737096 20.45858703 -6.14131532 18.19803357 -5.375 15.9375 C-4.85374655 14.38881321 -4.33290964 12.83998616 -3.8125 11.29101562 C-2.54646623 7.52570844 -1.27480038 3.7623477 0 0 Z " fill="#B8D2E0" transform="translate(398,1011)"/>
<path d="M0 0 C1.66624158 2.49936237 2.46343104 4.05843342 3.32861328 6.82885742 C3.69369995 7.98556946 3.69369995 7.98556946 4.06616211 9.16564941 C4.31503174 9.97078979 4.56390137 10.77593018 4.8203125 11.60546875 C5.17113892 12.72145447 5.17113892 12.72145447 5.52905273 13.85998535 C6.39961604 16.6341823 7.26180978 19.41100008 8.125 22.1875 C10.06375 28.395625 12.0025 34.60375 14 41 C29.18 41.33 44.36 41.66 60 42 C56.83203628 45.16796372 54.28907156 47.68677091 50.77734375 50.234375 C49.99657471 50.80462402 49.21580566 51.37487305 48.41137695 51.96240234 C47.59499756 52.55230957 46.77861816 53.1422168 45.9375 53.75 C44.24189206 54.98657416 42.54657974 56.22355377 40.8515625 57.4609375 C39.6145459 58.36150879 39.6145459 58.36150879 38.35253906 59.28027344 C35.15287811 61.61925349 31.9786373 63.99092273 28.8125 66.375 C27.87019531 67.08398438 26.92789063 67.79296875 25.95703125 68.5234375 C25.31121094 69.01070312 24.66539062 69.49796875 24 70 C25.62240497 76.33426536 27.46825693 82.57566249 29.515625 88.78515625 C29.7372229 89.45872162 29.9588208 90.13228699 30.18713379 90.82626343 C31.10902694 93.62210173 32.03406455 96.41682363 32.96777344 99.20874023 C33.65698203 101.27376613 34.33697547 103.34164046 35.015625 105.41015625 C35.62325684 107.23752319 35.62325684 107.23752319 36.24316406 109.10180664 C37 112 37 112 36 114 C35.05382812 113.28457031 34.10765625 112.56914063 33.1328125 111.83203125 C28.76712972 108.53865081 24.38689571 105.26505936 20 102 C18.77434326 101.08710205 18.77434326 101.08710205 17.52392578 100.15576172 C15.084614 98.34530135 12.63739398 96.54610629 10.1875 94.75 C9.41744629 94.17741455 8.64739258 93.6048291 7.85400391 93.01489258 C7.1326123 92.48919678 6.4112207 91.96350098 5.66796875 91.421875 C5.03141357 90.95362305 4.3948584 90.48537109 3.73901367 90.00292969 C1.90145227 88.7502037 1.90145227 88.7502037 -1 89 C-2.81522619 90.00406242 -2.81522619 90.00406242 -4.66796875 91.421875 C-5.75005615 92.2104187 -5.75005615 92.2104187 -6.85400391 93.01489258 C-7.62405762 93.58747803 -8.39411133 94.16006348 -9.1875 94.75 C-9.97817871 95.32967529 -10.76885742 95.90935059 -11.58349609 96.5065918 C-14.06249874 98.32869083 -16.53260145 100.16222356 -19 102 C-20.19278564 102.88776123 -20.19278564 102.88776123 -21.40966797 103.79345703 C-25.95199814 107.17955771 -30.48089944 110.58296892 -35 114 C-36 112 -36 112 -34.90429688 108.25634766 C-34.34934803 106.63986726 -33.78695267 105.02593185 -33.21875 103.4140625 C-32.61835515 101.66150438 -32.01809905 99.90889872 -31.41796875 98.15625 C-30.45992564 95.38780527 -29.49846488 92.62059866 -28.53369141 89.85449219 C-27.60728654 87.18983048 -26.69371346 84.52102422 -25.78125 81.8515625 C-25.48859253 81.02540436 -25.19593506 80.19924622 -24.89440918 79.34805298 C-24.49904968 78.18697525 -24.49904968 78.18697525 -24.09570312 77.00244141 C-23.85952271 76.32452545 -23.62334229 75.6466095 -23.38000488 74.94815063 C-22.92686506 72.62506301 -23.19835144 71.21373902 -24 69 C-25.60774453 67.36986578 -25.60774453 67.36986578 -27.69140625 65.96875 C-28.46436035 65.4109082 -29.23731445 64.85306641 -30.03369141 64.27832031 C-30.86819824 63.69147461 -31.70270508 63.10462891 -32.5625 62.5 C-34.29078521 61.2557924 -36.01864209 60.01098963 -37.74609375 58.765625 C-38.62120605 58.13978516 -39.49631836 57.51394531 -40.39794922 56.86914062 C-44.33870912 54.0383602 -48.23637021 51.15178854 -52.125 48.25 C-52.80506104 47.74919922 -53.48512207 47.24839844 -54.18579102 46.73242188 C-58.88444824 43.23110353 -58.88444824 43.23110353 -60 41 C-44.49 41 -28.98 41 -13 41 C-12.34 38.03 -11.68 35.06 -11 32 C-10.25183786 29.4479987 -9.46955996 26.90573406 -8.65234375 24.375 C-8.43558487 23.70202881 -8.21882599 23.02905762 -7.99549866 22.33569336 C-7.54284114 20.93360463 -7.08819389 19.53215677 -6.6315918 18.13134766 C-5.93053926 15.97862566 -5.23733073 13.82348459 -4.54492188 11.66796875 C-1.13702343 1.13702343 -1.13702343 1.13702343 0 0 Z " fill="#B8D2E0" transform="translate(652,1077)"/>
<path d="M0 0 C2 1 2 1 3.296875 4.5859375 C3.78897678 6.17992671 4.27276482 7.77649684 4.75 9.375 C5.27825855 11.10168103 5.80691653 12.82823991 6.3359375 14.5546875 C6.60760742 15.44897461 6.87927734 16.34326172 7.15917969 17.26464844 C7.99327609 19.9781258 8.85439106 22.68135282 9.7265625 25.3828125 C10.14083496 26.66986084 10.14083496 26.66986084 10.56347656 27.98291016 C11.09677724 29.63704071 11.63251223 31.29038878 12.17089844 32.94287109 C13.16843674 36.06335835 14 38.7023173 14 42 C29.18 42 44.36 42 60 42 C56.7083033 45.2916967 53.87563859 48.00055621 50.234375 50.7421875 C49.34363281 51.41636719 48.45289063 52.09054687 47.53515625 52.78515625 C46.61605469 53.47480469 45.69695312 54.16445313 44.75 54.875 C42.93196116 56.24695798 41.11424999 57.61935028 39.296875 58.9921875 C38.41708984 59.65573242 37.53730469 60.31927734 36.63085938 61.00292969 C32.72641765 63.96676908 28.85952619 66.97800758 25 70 C26.79413645 79.25939385 29.87505098 88.08968425 32.83740234 97.0234375 C33.52277213 99.09519891 34.20292914 101.16862047 34.8828125 103.2421875 C35.49213623 105.08079346 35.49213623 105.08079346 36.11376953 106.95654297 C37 110 37 110 37 113 C34.15036092 111.65323648 31.64277935 110.12814168 29.09375 108.27734375 C28.35535889 107.74254395 27.61696777 107.20774414 26.85620117 106.65673828 C26.07865479 106.08938965 25.3011084 105.52204102 24.5 104.9375 C23.69989502 104.35983887 22.89979004 103.78217773 22.07543945 103.18701172 C18.44096269 100.55377728 14.83575704 97.90112917 11.32421875 95.10546875 C10.28910156 94.28691406 9.25398438 93.46835937 8.1875 92.625 C7.29417969 91.89539063 6.40085937 91.16578125 5.48046875 90.4140625 C3.12574547 88.75536355 3.12574547 88.75536355 0.60888672 89.23388672 C-2.19493458 90.05724356 -3.8993901 91.08814142 -6.22265625 92.84375 C-7.00326416 93.42688965 -7.78387207 94.0100293 -8.58813477 94.61083984 C-9.40467529 95.2342627 -10.22121582 95.85768555 -11.0625 96.5 C-11.90288818 97.12986816 -12.74327637 97.75973633 -13.60913086 98.40869141 C-17.36845449 101.23007586 -21.10579404 104.08009768 -24.84375 106.9296875 C-25.67314087 107.55907227 -25.67314087 107.55907227 -26.51928711 108.20117188 C-27.9668993 109.30228237 -29.40753653 110.41254571 -30.84765625 111.5234375 C-33 113 -33 113 -35 113 C-33.78280485 107.10332873 -32.28620491 101.39927665 -30.3984375 95.68359375 C-30.1571109 94.94166275 -29.9157843 94.19973175 -29.66714478 93.43531799 C-28.90701594 91.10141106 -28.1411242 88.76944488 -27.375 86.4375 C-26.85378162 84.84062042 -26.33294496 83.24361619 -25.8125 81.64648438 C-24.54606675 77.76287065 -23.27446703 73.88098436 -22 70 C-22.49177734 69.63874023 -22.98355469 69.27748047 -23.49023438 68.90527344 C-25.82741464 67.1876521 -28.16384488 65.46901541 -30.5 63.75 C-31.35263428 63.12262939 -32.20526855 62.49525879 -33.08374023 61.84887695 C-39.45303672 57.15568001 -45.79165168 52.42342586 -52.09765625 47.64550781 C-55.40989017 45.10609571 -55.40989017 45.10609571 -59 43 C-59 42.34 -59 41.68 -59 41 C-43.82 41 -28.64 41 -13 41 C-11.515 35.555 -11.515 35.555 -10 30 C-9.19719434 27.44675096 -8.37255449 24.90019452 -7.51953125 22.36328125 C-7.19295784 21.38780586 -7.19295784 21.38780586 -6.85978699 20.3926239 C-6.18023191 18.36493724 -5.49646742 16.33870197 -4.8125 14.3125 C-4.34411798 12.91741271 -3.87601717 11.52223097 -3.40820312 10.12695312 C-2.27536759 6.75020966 -1.13875892 3.37475118 0 0 Z " fill="#B8D2E0" transform="translate(1154,572)"/>
<path d="M0 0 C2.92504996 2.46464461 3.81474079 4.79160691 4.9375 8.41015625 C5.44410156 10.01987305 5.44410156 10.01987305 5.9609375 11.66210938 C6.30382812 12.78423828 6.64671875 13.90636719 7 15.0625 C7.34289062 16.15755859 7.68578125 17.25261719 8.0390625 18.38085938 C9.03858236 21.58351939 10.02028606 24.79123525 11 28 C11.45439453 29.45188721 11.45439453 29.45188721 11.91796875 30.93310547 C12.19253906 31.8201416 12.46710938 32.70717773 12.75 33.62109375 C12.99234375 34.39767334 13.2346875 35.17425293 13.484375 35.97436523 C14 38 14 38 14 41 C29.51 41 45.02 41 61 41 C57.83203628 44.16796372 55.28907156 46.68677091 51.77734375 49.234375 C50.99657471 49.80462402 50.21580566 50.37487305 49.41137695 50.96240234 C48.59499756 51.55230957 47.77861816 52.1422168 46.9375 52.75 C45.24189206 53.98657416 43.54657974 55.22355377 41.8515625 56.4609375 C40.6145459 57.36150879 40.6145459 57.36150879 39.35253906 58.28027344 C36.15287811 60.61925349 32.9786373 62.99092273 29.8125 65.375 C28.87019531 66.08398438 27.92789063 66.79296875 26.95703125 67.5234375 C26.31121094 68.01070313 25.66539062 68.49796875 25 69 C26.57284477 76.91551227 28.98367497 84.46347364 31.5 92.125 C32.30309694 94.58560691 33.10521118 97.04653481 33.90625 99.5078125 C34.26009766 100.58691895 34.61394531 101.66602539 34.97851562 102.77783203 C36.05377182 106.16961771 37.03785269 109.57464748 38 113 C34.31133536 111.33386404 31.13627856 109.05273074 27.875 106.6875 C27.27824463 106.26178711 26.68148926 105.83607422 26.06665039 105.39746094 C22.41495533 102.78385137 18.81988338 100.10837509 15.25390625 97.37890625 C14.4542041 96.77667236 13.65450195 96.17443848 12.83056641 95.55395508 C11.25244462 94.36432624 9.68531555 93.15995309 8.13037109 91.94018555 C7.40543457 91.39789307 6.68049805 90.85560059 5.93359375 90.296875 C5.29478271 89.80541992 4.65597168 89.31396484 3.99780273 88.80761719 C1.94930364 87.74543484 1.94930364 87.74543484 -0.48193359 88.67260742 C-2.90463899 89.94973068 -5.03122763 91.3019722 -7.22265625 92.94140625 C-8.00342529 93.52132324 -8.78419434 94.10124023 -9.58862305 94.69873047 C-10.40500244 95.31377441 -11.22138184 95.92881836 -12.0625 96.5625 C-12.90143799 97.18785645 -13.74037598 97.81321289 -14.60473633 98.45751953 C-17.07379634 100.29977623 -19.53735416 102.14918211 -22 104 C-23.30438969 104.9756587 -24.60904556 105.95096171 -25.9140625 106.92578125 C-28.61398201 108.94443075 -31.30890525 110.96959318 -34 113 C-34.99736753 109.90914389 -35.00150066 108.14551131 -33.93603516 105.08935547 C-33.67891754 104.3353244 -33.42179993 103.58129333 -33.15689087 102.80441284 C-32.87050751 102.00012848 -32.58412415 101.19584412 -32.2890625 100.3671875 C-32.00147064 99.53414093 -31.71387878 98.70109436 -31.41757202 97.84280396 C-30.49659081 95.18331685 -29.56084663 92.52928779 -28.625 89.875 C-28.00166393 88.07975327 -27.37925694 86.28418366 -26.7578125 84.48828125 C-22.23831906 71.47663811 -22.23831906 71.47663811 -21 69 C-21.57709717 68.72921631 -22.15419434 68.45843262 -22.7487793 68.17944336 C-25.01915497 66.98996447 -26.96506042 65.65873805 -29.01953125 64.12890625 C-29.7880542 63.55938232 -30.55657715 62.9898584 -31.34838867 62.40307617 C-32.16154541 61.79568604 -32.97470215 61.1882959 -33.8125 60.5625 C-35.51280861 59.29919349 -37.21333247 58.03617662 -38.9140625 56.7734375 C-39.76387695 56.14147461 -40.61369141 55.50951172 -41.48925781 54.85839844 C-43.84579774 53.11413726 -46.21248096 51.38520801 -48.5859375 49.6640625 C-49.28098389 49.15931396 -49.97603027 48.65456543 -50.69213867 48.13452148 C-52.00312653 47.18380265 -53.31574364 46.23532565 -54.63012695 45.28930664 C-56.10455853 44.21693687 -57.5553183 43.11212418 -59 42 C-59 41.67 -59 41.34 -59 41 C-36.23 40.505 -36.23 40.505 -13 40 C-9.84361768 30.20340764 -9.84361768 30.20340764 -6.68823242 20.40649414 C-4.49169337 13.59309375 -2.28200672 6.78536883 0 0 Z " fill="#B8D2E0" transform="translate(395,140)"/>
<path d="M0 0 C2.92439111 2.92439111 3.58208713 6.5657731 4.75 10.4375 C5.2783526 12.15373613 5.80700773 13.86987916 6.3359375 15.5859375 C6.74344238 16.9177002 6.74344238 16.9177002 7.15917969 18.27636719 C7.99830629 20.99451364 8.85831426 23.70508866 9.7265625 26.4140625 C10.14083496 27.70872437 10.14083496 27.70872437 10.56347656 29.02954102 C11.09776505 30.69718333 11.63353407 32.36435214 12.17089844 34.03100586 C14 39.77671718 14 39.77671718 14 42 C29.51 42 45.02 42 61 42 C58.26132905 44.73867095 55.9733734 46.88070333 52.91015625 49.1015625 C51.74214478 49.95403564 51.74214478 49.95403564 50.55053711 50.82373047 C49.72948486 51.41814941 48.90843262 52.01256836 48.0625 52.625 C41.06037716 57.72707286 34.16144788 62.92430499 27.37109375 68.3046875 C25 70 25 70 23 70 C23.42933838 71.22630127 23.85867676 72.45260254 24.30102539 73.71606445 C25.88862893 78.25832211 27.46430608 82.8046405 29.03637695 87.35229492 C29.71898986 89.32152677 30.40485009 91.28963604 31.09399414 93.2565918 C32.08290906 96.08094421 33.06014848 98.90910259 34.03515625 101.73828125 C34.34655045 102.61962234 34.65794464 103.50096344 34.97877502 104.40901184 C35.25914108 105.22963608 35.53950714 106.05026031 35.82836914 106.89575195 C36.07929825 107.61745071 36.33022736 108.33914948 36.58876038 109.0827179 C37 111 37 111 36 114 C35.50298584 113.63350342 35.00597168 113.26700684 34.49389648 112.8894043 C33.79337158 112.37289307 33.09284668 111.85638184 32.37109375 111.32421875 C31.59000244 110.74808838 30.80891113 110.17195801 30.00415039 109.57836914 C28.28454296 108.31152242 26.56366301 107.04640131 24.84155273 105.78295898 C20.7130895 102.75184319 16.59976048 99.70742643 12.5390625 96.5859375 C11.86431885 96.07329346 11.1895752 95.56064941 10.49438477 95.0324707 C9.22925055 94.06983035 7.97155392 93.09731716 6.72241211 92.11401367 C3.72742864 89.66547988 3.72742864 89.66547988 0.06787109 89.2109375 C-2.31358925 90.11966003 -4.04792687 91.2818492 -6.08984375 92.80859375 C-6.8686792 93.38657715 -7.64751465 93.96456055 -8.44995117 94.56005859 C-9.27084229 95.17961426 -10.0917334 95.79916992 -10.9375 96.4375 C-11.77837158 97.06479004 -12.61924316 97.69208008 -13.4855957 98.33837891 C-20.37552613 103.49121411 -27.21330381 108.71198178 -34 114 C-34.66 113.67 -35.32 113.34 -36 113 C-35.67725098 112.08822998 -35.35450195 111.17645996 -35.02197266 110.23706055 C-33.80962525 106.8050842 -32.60836127 103.36930973 -31.41015625 99.93237305 C-30.89324532 98.45445141 -30.37346173 96.97753085 -29.85058594 95.50170898 C-26.86723079 87.07458797 -24.17390337 78.90947228 -23 70 C-38.30155486 58.19177657 -38.30155486 58.19177657 -53.99853516 46.92041016 C-57.89750378 44.20499244 -57.89750378 44.20499244 -59 42 C-43.82 42 -28.64 42 -13 42 C-12.34 39.03 -11.68 36.06 -11 33 C-10.16933411 30.27926585 -9.31567108 27.59237279 -8.3984375 24.90234375 C-8.0364476 23.82274132 -8.0364476 23.82274132 -7.66714478 22.72132874 C-6.90737096 20.45858703 -6.14131532 18.19803357 -5.375 15.9375 C-4.85374655 14.38881321 -4.33290964 12.83998616 -3.8125 11.29101562 C-2.54646623 7.52570844 -1.27480038 3.7623477 0 0 Z " fill="#B8D2E0" transform="translate(1085,828)"/>
<path d="M0 0 C2.92439111 2.92439111 3.58208713 6.5657731 4.75 10.4375 C5.2783526 12.15373613 5.80700773 13.86987916 6.3359375 15.5859375 C6.74344238 16.9177002 6.74344238 16.9177002 7.15917969 18.27636719 C7.99830629 20.99451364 8.85831426 23.70508866 9.7265625 26.4140625 C10.14083496 27.70872437 10.14083496 27.70872437 10.56347656 29.02954102 C11.09776505 30.69718333 11.63353407 32.36435214 12.17089844 34.03100586 C14 39.77671718 14 39.77671718 14 42 C29.18 42 44.36 42 60 42 C56.7083033 45.2916967 53.87563859 48.00055621 50.234375 50.7421875 C49.34363281 51.41636719 48.45289063 52.09054687 47.53515625 52.78515625 C46.61605469 53.47480469 45.69695312 54.16445313 44.75 54.875 C42.93196116 56.24695798 41.11424999 57.61935028 39.296875 58.9921875 C38.41451172 59.65573242 37.53214844 60.31927734 36.62304688 61.00292969 C33.30050505 63.5325641 30.0373746 66.13391416 26.78613281 68.75439453 C25 70 25 70 23 70 C23.3403125 70.86496094 23.680625 71.72992188 24.03125 72.62109375 C27.44141598 81.42780259 30.51153054 90.33362507 33.4375 99.3125 C33.80359375 100.41585693 34.1696875 101.51921387 34.546875 102.65600586 C34.88074219 103.69378174 35.21460938 104.73155762 35.55859375 105.80078125 C35.86079834 106.73059814 36.16300293 107.66041504 36.47436523 108.6184082 C37 111 37 111 36 114 C35.50298584 113.63350342 35.00597168 113.26700684 34.49389648 112.8894043 C33.79337158 112.37289307 33.09284668 111.85638184 32.37109375 111.32421875 C31.59000244 110.74808838 30.80891113 110.17195801 30.00415039 109.57836914 C28.28454296 108.31152242 26.56366301 107.04640131 24.84155273 105.78295898 C20.7130895 102.75184319 16.59976048 99.70742643 12.5390625 96.5859375 C11.86431885 96.07329346 11.1895752 95.56064941 10.49438477 95.0324707 C9.22925055 94.06983035 7.97155392 93.09731716 6.72241211 92.11401367 C3.70682967 89.64697272 3.70682967 89.64697272 0.02026367 89.24267578 C-2.08706168 90.0326363 -3.54781589 90.93149407 -5.328125 92.30078125 C-5.9557373 92.77805664 -6.58334961 93.25533203 -7.22998047 93.74707031 C-7.89658691 94.26366211 -8.56319336 94.78025391 -9.25 95.3125 C-10.6744694 96.39714824 -12.09894888 97.48178325 -13.5234375 98.56640625 C-15.01577094 99.71074721 -16.50795628 100.85528132 -18 102 C-20.95282687 104.25733679 -23.91232071 106.5056179 -26.875 108.75 C-27.90028809 109.5375769 -27.90028809 109.5375769 -28.94628906 110.34106445 C-33.77414499 114 -33.77414499 114 -36 114 C-34.28768939 108.0849063 -32.43035914 102.22486286 -30.484375 96.3828125 C-30.03366629 95.02089549 -29.58314797 93.65891547 -29.1328125 92.296875 C-28.43782856 90.19511702 -27.7397594 88.09464046 -27.03222656 85.99707031 C-26.33997571 83.94120873 -25.66104068 81.88134782 -24.984375 79.8203125 C-24.57928711 78.60617676 -24.17419922 77.39204102 -23.75683594 76.14111328 C-22.84310438 72.44068542 -22.84310438 72.44068542 -24 69 C-25.60774453 67.36986578 -25.60774453 67.36986578 -27.69140625 65.96875 C-28.46444092 65.41082764 -29.23747559 64.85290527 -30.03393555 64.27807617 C-30.86836182 63.69131104 -31.70278809 63.1045459 -32.5625 62.5 C-34.28950654 61.25712718 -36.01606082 60.01362573 -37.7421875 58.76953125 C-38.61713867 58.14385254 -39.49208984 57.51817383 -40.39355469 56.87353516 C-44.35877291 54.02330242 -48.27691993 51.11203508 -52.1875 48.1875 C-52.87593994 47.67832031 -53.56437988 47.16914063 -54.27368164 46.64453125 C-55.86791378 45.45445617 -57.43709248 44.23092441 -59 43 C-59 42.67 -59 42.34 -59 42 C-43.82 42 -28.64 42 -13 42 C-12.34 39.03 -11.68 36.06 -11 33 C-10.16933411 30.27926585 -9.31567108 27.59237279 -8.3984375 24.90234375 C-8.0364476 23.82274132 -8.0364476 23.82274132 -7.66714478 22.72132874 C-6.90737096 20.45858703 -6.14131532 18.19803357 -5.375 15.9375 C-4.85374655 14.38881321 -4.33290964 12.83998616 -3.8125 11.29101562 C-2.54646623 7.52570844 -1.27480038 3.7623477 0 0 Z " fill="#B8D2E0" transform="translate(1085,323)"/>
<path d="M0 0 C0.66 0 1.32 0 2 0 C3.44005517 4.29081348 4.87657322 8.58280336 6.3125 12.875 C6.71662109 14.07898437 7.12074219 15.28296875 7.53710938 16.5234375 C14 35.85956555 14 35.85956555 14 40 C29.51 40 45.02 40 61 40 C57.83203628 43.16796372 55.28907156 45.68677091 51.77734375 48.234375 C50.99657471 48.80462402 50.21580566 49.37487305 49.41137695 49.96240234 C48.59499756 50.55230957 47.77861816 51.1422168 46.9375 51.75 C45.24189206 52.98657416 43.54657974 54.22355377 41.8515625 55.4609375 C40.6145459 56.36150879 40.6145459 56.36150879 39.35253906 57.28027344 C36.15287811 59.61925349 32.9786373 61.99092273 29.8125 64.375 C28.87019531 65.08398438 27.92789063 65.79296875 26.95703125 66.5234375 C26.31121094 67.01070312 25.66539062 67.49796875 25 68 C26.23542373 73.95752288 27.74646681 79.74219059 29.6015625 85.53515625 C29.8428891 86.29928329 30.0842157 87.06341034 30.33285522 87.85069275 C31.0933232 90.25578018 31.85905779 92.65915105 32.625 95.0625 C33.14618492 96.70757094 33.66702133 98.35275234 34.1875 99.99804688 C35.45431469 103.99998402 36.72585064 108.00039235 38 112 C35.17228674 110.66340544 32.6881065 109.15643507 30.1640625 107.3125 C29.43598389 106.78277588 28.70790527 106.25305176 27.95776367 105.70727539 C27.18795166 105.14387451 26.41813965 104.58047363 25.625 104 C24.4325769 103.13846313 24.4325769 103.13846313 23.21606445 102.25952148 C19.40069859 99.50064796 15.61190339 96.71715197 11.87890625 93.84765625 C10.93893799 93.13899414 10.93893799 93.13899414 9.97998047 92.41601562 C8.80999437 91.53255023 7.65076322 90.63460541 6.50439453 89.72070312 C4.76989742 88.35988431 4.76989742 88.35988431 2 87 C-1.68669023 88.08079477 -4.44551745 89.87807428 -7.4765625 92.1953125 C-8.30768555 92.8255835 -9.13880859 93.45585449 -9.99511719 94.10522461 C-10.86297852 94.77175049 -11.73083984 95.43827637 -12.625 96.125 C-14.41361933 97.48365653 -16.20267889 98.84173372 -17.9921875 100.19921875 C-18.85166992 100.85325684 -19.71115234 101.50729492 -20.59667969 102.18115234 C-25.01374367 105.52401365 -29.50016111 108.76961107 -34 112 C-35.11175532 108.66473403 -34.93289024 108.07247194 -33.82836914 104.89575195 C-33.54800308 104.07512772 -33.26763702 103.25450348 -32.97877502 102.40901184 C-32.66738083 101.52767075 -32.35598663 100.64632965 -32.03515625 99.73828125 C-31.72299667 98.83248825 -31.4108371 97.92669525 -31.08921814 96.99345398 C-30.08876899 94.09679252 -29.0758081 91.20468517 -28.0625 88.3125 C-27.38263594 86.35119814 -26.70358903 84.38961282 -26.02539062 82.42773438 C-24.35972978 77.61514731 -22.68283375 72.8066077 -21 68 C-21.61957077 67.69758896 -22.23914154 67.39517792 -22.87748718 67.08360291 C-25.11374374 65.9419306 -27.00648151 64.62789444 -29.01953125 63.12890625 C-29.7880542 62.55938232 -30.55657715 61.9898584 -31.34838867 61.40307617 C-32.16154541 60.79568604 -32.97470215 60.1882959 -33.8125 59.5625 C-35.51280861 58.29919349 -37.21333247 57.03617662 -38.9140625 55.7734375 C-39.76387695 55.14147461 -40.61369141 54.50951172 -41.48925781 53.85839844 C-43.84579774 52.11413726 -46.21248096 50.38520801 -48.5859375 48.6640625 C-49.28098389 48.15931396 -49.97603027 47.65456543 -50.69213867 47.13452148 C-52.00312653 46.18380265 -53.31574364 45.23532565 -54.63012695 44.28930664 C-56.10455853 43.21693687 -57.5553183 42.11212418 -59 41 C-59 40.67 -59 40.34 -59 40 C-36.23 39.505 -36.23 39.505 -13 39 C-9.84196565 29.15889232 -9.84196565 29.15889232 -6.68823242 19.31640625 C-4.59824023 12.82040463 -2.49104637 6.35589239 0 0 Z " fill="#B8D2E0" transform="translate(900,1012)"/>
</svg>
