<?xml version="1.0" encoding="UTF-8"?><svg id="Layer_2" xmlns="http://www.w3.org/2000/svg" xmlns:xlink="http://www.w3.org/1999/xlink" viewBox="0 0 98.438 94.974"><defs><style>.cls-1{fill:url(#linear-gradient);}.cls-2{fill:#f4c47f;}.cls-3{fill:#7b1c58;}.cls-4{fill:#7276b1;}</style><linearGradient id="linear-gradient" x1="82.136" y1="75.093" x2="2.303" y2="75.093" gradientUnits="userSpaceOnUse"><stop offset="0" stop-color="#7b1c58"/><stop offset="1" stop-color="#7276b1"/></linearGradient></defs><g id="Layer_1-2"><g id="logoMark"><a xlink:href="20.5937254901961"><path id="logoMark_PathItem_" class="cls-2" d="M49.852,90.621c-.47,.19-.914,.369-1.351,.745-1.635,1.41-.114,3.162,3.071,3.537,3.994,.471,6.294-1.509,4.902-3.258-.983-1.235-3.729-1.955-6.622-1.025Z"/></a><a xlink:href="51.556862745098"><path id="logoMark_PathItem_-2" class="cls-4" d="M78.595,77.221c-3.287,1.932-4.717,5.547-3.711,7.252,1.435,2.431,5.954-1.135,7.023-4.776,.674-2.297-.401-3.897-3.312-2.476Z"/></a><a xlink:href="adient"><path id="logoMark_PathItem_-3" class="cls-1" d="M89.753,70.851c-2.902,2.161-4.765,7.204-4.278,8.517,.518,1.396,3.581-2.059,5.057-5.26,.296-.642,.511-1.227,.638-1.74,.071-.288,.638-2.774-1.417-1.517Z"/></a><a xlink:href="51.556862745098"><path id="logoMark_PathItem_-4" class="cls-4" d="M32.683,82.28c-.379,.139-.851,.312-1.274,.616-2.689,1.936-.212,5.65,4.345,6.515,4.566,.866,6.955-1.95,5.194-4.585-1.118-1.673-4.421-3.568-8.265-2.546Z"/></a><a xlink:href="51.556862745098"><path id="logoMark_PathItem_-5" class="cls-4" d="M50.626,75.323c-5.004,2.282-4.968,6.616-1.288,8.31,4.824,2.221,11.053-1.554,9.66-5.853-.663-2.046-3.699-4.161-8.372-2.457Z"/></a><a xlink:href="20.5937254901961"><path id="logoMark_PathItem_-6" class="cls-2" d="M96.044,50.269c-3.11,2.953-3.799,10.547-2.223,12.225,1.536,1.636,3.962-3.036,4.512-7.558,.352-2.892-.126-6.252-2.289-4.667Z"/></a><a xlink:href="20.5937254901961"><path id="logoMark_PathItem_-7" class="cls-2" d="M20.597,26.397c-4.04,1.694-4.814,7.147-2.247,9.291,3.224,2.693,8.483-1.139,7.815-5.695-.308-2.101-2.239-4.606-5.568-3.596Z"/></a><a xlink:href="51.556862745098"><path id="logoMark_PathItem_-8" class="cls-4" d="M36.01,19.766c-4.654,2.362-4.006,8.274-.019,9.792,4.452,1.695,9.118-2.69,7.341-6.899-.865-2.05-3.709-4.303-7.322-2.893Z"/></a><a xlink:href="20.5937254901961"><path id="logoMark_PathItem_-9" class="cls-2" d="M68.217,13.884c3.616-.046,4.332-3.465,1.298-6.201-1.755-1.582-5.315-3.179-7.735-1.774-.082,.065-.198,.146-.275,.218-2.554,2.378,2.15,7.815,6.711,7.757Z"/></a><a xlink:href="51.556862745098"><path id="logoMark_PathItem_-10" class="cls-4" d="M77.509,6.64c1.714-.364,.58-2.655-2.289-4.625-1.875-1.287-5.004-2.661-6.09-1.684-1.32,2.079,5.968,6.822,8.379,6.309Z"/></a><a xlink:href="20.5937254901961"><path id="logoMark_PathItem_-11" class="cls-2" d="M2.207,49.916c-3.454,.867-2.521,8.212,.502,10.165,2.364,1.526,4.449-1.166,3.847-4.967-.36-2.272-1.947-5.387-4.349-5.198Z"/></a><a xlink:href="51.556862745098"><path id="logoMark_PathItem_-12" class="cls-4" d="M16.09,45.948c-4.782,1.795-4.686,8.266-.915,10.688,4.014,2.579,8.798-1.258,7.755-6.221-.515-2.449-2.977-5.454-6.84-4.467Z"/></a><a xlink:href="51.556862745098"><path id="logoMark_PathItem_-13" class="cls-4" d="M34.328,38.813c-5.833,2.703-5.747,9.295-1.288,11.557,5.247,2.661,11.735-2.38,10.061-7.817-.737-2.394-3.771-5.526-8.773-3.739Z"/></a><a xlink:href="75.1980392156863"><path id="logoMark_PathItem_-14" class="cls-3" d="M90.146,48.365l-.2,.2c-2,2.19-2.83,6.94-.96,9.35,.32,.43,1.07,1.43,.93,3.69-.28,4.28-3.61,8.64-6.45,8.64-.76,0-1.48-.31-2.1-1.02-1.53-1.54-4.54,.06-5.69,3-2.34,6.04-9.31,6.81-11,2.47-.23-.59-.28-1.2-.28-1.64,0-.39,.04-.65,.04-.65,.45-4.37-3.42-6.99-8.45-5.71,.03-.01,.06-.02,.1-.04-2.01,.7-4.28,.73-6.41-.24-5.6-2.55-5.18-9.96,.43-13.16,2.63-1.72,3.8-4.15,3.8-6.46,0-2.1-.96-4.1-2.65-5.43-3.53-2.83-3.62-8.53,1.37-11.3,2.23-1.02,4.38-.97,6.58,.14,3.13,1.6,6.46-.26,6.37-3.54,0,.02,0,.03,.01,.05-.19-2.14,.57-4.26,2.64-5.62,4.06-2.13,8,.68,9.5,3.36,.566,1.012,.931,2.139,1,3.3,.061,1.024-.111,2.062-.528,3.001-.392,.882-.999,1.666-1.773,2.247-.792,.594-1.74,.955-2.724,1.054-1.225,.123-2.506-.137-3.597-.695-.088-.045-.175-.091-.261-.137-.637-.34-1.266-.687-1.984-.82-.528-.098-1.074-.101-1.602-.001-1.036,.195-1.971,.783-2.609,1.62-.545,.714-.858,1.582-.961,2.462-.12,.95-.33,1.8-.75,2.61-.43,.81-1.07,1.58-2.09,2.37-3.67,2.69-4.78,8.46-.72,11.91,1.22,.84,2.11,2.03,2.57,3.37,.37,1.08,.44,2.15,.3,3.17-.3,4.65,3.4,7.59,8.02,6.3,1.96-.5,3.13-.37,4.51,.5,2.12,1.46,5.05-.15,6.07-3.31,.51-1.86,1.62-3.77,3.37-5.25,2.72-2.18,3.74-7.16,1-9.66,.02,.01,.03,.02,.05,.03-.37-.28-.72-.61-1.03-1,.06,.08,.12,.16,.18,.24-1.67-1.72-4.01,.1-4.22,2.54-.09-.27-.18-.55-.28-.83,.1,.28,.19,.57,.28,.86-.76,8.08-9.23,10.86-13.31,6.07-2.99-3.51-2.34-10.08,2.98-13.3,1.23-.6,2.42-.91,3.55-.91,1.62,0,3.13,.62,4.51,1.86,.51,.48,1.11,.71,1.7,.71,1.32,0,2.59-1.16,2.63-3.24,0,.11,.02,.21,.02,.32-.12-2.8,.76-5.68,2.95-7.32,3.73-2.19,6.53,1.43,7.33,4.71,.93,3.79-.19,7.4-2.16,9.13Z"/></a><a xlink:href="51.556862745098"><path id="logoMark_PathItem_-15" class="cls-4" d="M85.465,24.993c3.742,.797,4.654-3.612,1.655-7.997-1.516-2.217-4.841-5.086-7.305-3.349-3.032,3.026,1.305,10.42,5.651,11.346Z"/></a><a xlink:href="20.5937254901961"><path id="logoMark_PathItem_-16" class="cls-2" d="M30.732,61.566c-6.337,2.633-5.458,9.658-.119,12.081,5.986,2.717,12.705-2.124,10.731-7.73-1.006-2.857-4.963-6.096-10.612-4.351Z"/></a></g></g></svg>