<svg width="46" height="46" viewBox="0 0 46 46" fill="none" xmlns="http://www.w3.org/2000/svg">
<g clip-path="url(#clip0_390_86)">
<path d="M4.3125 35.9375C14.5391 35.9292 24.7212 37.2834 34.5901 39.9644C35.9835 40.3439 37.375 39.3089 37.375 37.8637V35.9375M7.1875 8.625V10.0625C7.1875 10.4437 7.03605 10.8094 6.76647 11.079C6.49688 11.3485 6.13125 11.5 5.75 11.5H4.3125M4.3125 11.5V10.7812C4.3125 9.591 5.2785 8.625 6.46875 8.625H38.8125M4.3125 11.5V28.75M38.8125 8.625V10.0625C38.8125 10.856 39.4565 11.5 40.25 11.5H41.6875M38.8125 8.625H39.5312C40.7215 8.625 41.6875 9.591 41.6875 10.7812V29.4687C41.6875 30.659 40.7215 31.625 39.5312 31.625H38.8125M4.3125 28.75V29.4687C4.3125 30.0406 4.53968 30.5891 4.94405 30.9935C5.34843 31.3978 5.89688 31.625 6.46875 31.625H7.1875M4.3125 28.75H5.75C6.13125 28.75 6.49688 28.9015 6.76647 29.171C7.03605 29.4406 7.1875 29.8063 7.1875 30.1875V31.625M38.8125 31.625V30.1875C38.8125 29.8063 38.9639 29.4406 39.2335 29.171C39.5031 28.9015 39.8688 28.75 40.25 28.75H41.6875M38.8125 31.625H7.1875M28.75 20.125C28.75 21.65 28.1442 23.1125 27.0659 24.1909C25.9875 25.2692 24.525 25.875 23 25.875C21.475 25.875 20.0125 25.2692 18.9341 24.1909C17.8558 23.1125 17.25 21.65 17.25 20.125C17.25 18.6 17.8558 17.1375 18.9341 16.0591C20.0125 14.9808 21.475 14.375 23 14.375C24.525 14.375 25.9875 14.9808 27.0659 16.0591C28.1442 17.1375 28.75 18.6 28.75 20.125ZM34.5 20.125H34.5153V20.1403H34.5V20.125ZM11.5 20.125H11.5153V20.1403H11.5V20.125Z" stroke="black" stroke-width="1.5" stroke-linecap="round" stroke-linejoin="round"/>
</g>
<defs>
<clipPath id="clip0_390_86">
<rect width="46" height="46" fill="white"/>
</clipPath>
</defs>
</svg>
