<svg width="45" height="45" viewBox="0 0 45 45" fill="none" xmlns="http://www.w3.org/2000/svg">
<path d="M18.2812 5.81999V16.5337C18.2813 17.0878 18.1721 17.6364 17.9601 18.1482C17.7481 18.66 17.4374 19.1251 17.0456 19.5169L9.375 27.1875M18.2812 5.81999C17.8106 5.86312 17.3419 5.91374 16.875 5.97374M18.2812 5.81999C21.0877 5.55903 23.9123 5.55903 26.7187 5.81999M9.375 27.1875L10.8187 26.8256C14.7431 25.8559 18.8847 26.3166 22.5 28.125C26.1153 29.9334 30.2569 30.3941 34.1812 29.4244L37.125 28.6875M9.375 27.1875L5.24625 31.3181C2.93437 33.6262 4.02562 37.5375 7.24687 38.0869C12.2044 38.9344 17.3006 39.375 22.5 39.375C27.6116 39.3768 32.7142 38.9459 37.7531 38.0869C40.9725 37.5375 42.0637 33.6262 39.7537 31.3162L37.125 28.6875M26.7187 5.81999V16.5337C26.7187 17.6531 27.1631 18.7275 27.9544 19.5169L37.125 28.6875M26.7187 5.81999C27.1894 5.86312 27.6581 5.91374 28.125 5.97374" stroke="black" stroke-width="1.5" stroke-linecap="round" stroke-linejoin="round"/>
</svg>
