<svg width="38" height="38" viewBox="0 0 38 38" fill="none" xmlns="http://www.w3.org/2000/svg">
<path d="M27.0101 24.5749C27.7508 24.0691 28.6195 23.7834 29.5158 23.7507C30.4121 23.718 31.2993 23.9398 32.0749 24.3903C32.8504 24.8409 33.4825 25.5018 33.8981 26.2966C34.3137 27.0914 34.4958 27.9876 34.4232 28.8816C32.5235 29.5455 30.5057 29.8039 28.5 29.64C28.4938 27.8455 27.9771 26.0882 27.0101 24.5765C26.1518 23.2303 24.9678 22.1224 23.5676 21.3552C22.1675 20.588 20.5965 20.1864 19 20.1875C17.4037 20.1867 15.8331 20.5884 14.4332 21.3556C13.0334 22.1228 11.8497 23.2306 10.9915 24.5765M28.4984 29.6384L28.5 29.6875C28.5 30.0437 28.481 30.3953 28.4414 30.742C25.5682 32.3904 22.3125 33.2553 19 33.25C15.5642 33.25 12.3389 32.338 9.55858 30.742C9.51787 30.3756 9.49831 30.0071 9.5 29.6384M9.5 29.6384C7.49491 29.8083 5.47818 29.5508 3.57991 28.8832C3.50764 27.9895 3.68979 27.0935 4.10531 26.299C4.52083 25.5045 5.15275 24.8438 5.928 24.3933C6.70325 23.9428 7.59017 23.721 8.48622 23.7534C9.38226 23.7858 10.2508 24.0712 10.9915 24.5765M9.5 29.6384C9.50568 27.8441 10.0251 26.0884 10.9915 24.5765M23.75 10.6875C23.75 11.9473 23.2496 13.1555 22.3588 14.0463C21.468 14.9371 20.2598 15.4375 19 15.4375C17.7402 15.4375 16.532 14.9371 15.6412 14.0463C14.7504 13.1555 14.25 11.9473 14.25 10.6875C14.25 9.42772 14.7504 8.21954 15.6412 7.32874C16.532 6.43795 17.7402 5.9375 19 5.9375C20.2598 5.9375 21.468 6.43795 22.3588 7.32874C23.2496 8.21954 23.75 9.42772 23.75 10.6875ZM33.25 15.4375C33.25 15.9053 33.1579 16.3686 32.9788 16.8008C32.7998 17.233 32.5374 17.6258 32.2066 17.9566C31.8758 18.2874 31.483 18.5498 31.0508 18.7288C30.6186 18.9079 30.1553 19 29.6875 19C29.2197 19 28.7564 18.9079 28.3242 18.7288C27.892 18.5498 27.4992 18.2874 27.1684 17.9566C26.8376 17.6258 26.5752 17.233 26.3962 16.8008C26.2171 16.3686 26.125 15.9053 26.125 15.4375C26.125 14.4927 26.5003 13.5865 27.1684 12.9184C27.8365 12.2503 28.7427 11.875 29.6875 11.875C30.6323 11.875 31.5385 12.2503 32.2066 12.9184C32.8747 13.5865 33.25 14.4927 33.25 15.4375ZM11.875 15.4375C11.875 15.9053 11.7829 16.3686 11.6038 16.8008C11.4248 17.233 11.1624 17.6258 10.8316 17.9566C10.5008 18.2874 10.108 18.5498 9.67581 18.7288C9.24358 18.9079 8.78033 19 8.3125 19C7.84466 19 7.38141 18.9079 6.94919 18.7288C6.51696 18.5498 6.12424 18.2874 5.79343 17.9566C5.46262 17.6258 5.20021 17.233 5.02118 16.8008C4.84214 16.3686 4.75 15.9053 4.75 15.4375C4.75 14.4927 5.12533 13.5865 5.79343 12.9184C6.46153 12.2503 7.36766 11.875 8.3125 11.875C9.25733 11.875 10.1635 12.2503 10.8316 12.9184C11.4997 13.5865 11.875 14.4927 11.875 15.4375Z" stroke="black" stroke-width="1.5" stroke-linecap="round" stroke-linejoin="round"/>
</svg>
