<svg width="45" height="45" viewBox="0 0 45 45" fill="none" xmlns="http://www.w3.org/2000/svg">
<g clip-path="url(#clip0_390_150)">
<path d="M4 14.1667C4 12.9707 4.98215 12 6.19231 12H17.8846C19.0948 12 20.0769 12.9707 20.0769 14.1667V21.3889C20.0769 22.5849 19.0948 23.5556 17.8846 23.5556H6.19231C5.61087 23.5556 5.05325 23.3273 4.64211 22.921C4.23097 22.5146 4 21.9635 4 21.3889V14.1667ZM27.3846 17.0556C27.3846 15.8596 28.3668 14.8889 29.5769 14.8889H39.8077C41.0178 14.8889 42 15.8596 42 17.0556V32.9444C42 34.1404 41.0178 35.1111 39.8077 35.1111H29.5769C28.9955 35.1111 28.4379 34.8828 28.0267 34.4765C27.6156 34.0702 27.3846 33.5191 27.3846 32.9444V17.0556ZM6.92308 31.5C6.92308 30.304 7.90523 29.3333 9.11538 29.3333H19.3462C20.5563 29.3333 21.5385 30.304 21.5385 31.5V35.8333C21.5385 37.0293 20.5563 38 19.3462 38H9.11538C8.53395 38 7.97633 37.7717 7.56519 37.3654C7.15405 36.9591 6.92308 36.408 6.92308 35.8333V31.5Z" stroke="black" stroke-width="1.5" stroke-linecap="round" stroke-linejoin="round"/>
</g>
<defs>
<clipPath id="clip0_390_150">
<rect width="45" height="45" fill="white"/>
</clipPath>
</defs>
</svg>
